<?xml version="1.0" standalone="no"?>
<svg version="1.0" xmlns="http://www.w3.org/2000/svg"
 width="50px" height="50px" viewBox="0 0 512.000000 512.000000"
 preserveAspectRatio="xMidYMid meet">

<g transform="translate(0.000000,512.000000) scale(0.100000,-0.100000)"
fill="#000000" stroke="none">
<path d="M774 5104 c-54 -27 -64 -57 -64 -203 l0 -130 -254 -3 -254 -3 -43
-30 c-23 -16 -53 -50 -66 -74 -23 -44 -23 -46 -23 -418 l0 -373 2323 2 2322 3
3 340 c3 376 -1 420 -49 478 -57 70 -66 71 -344 77 l-250 5 -5 141 c-5 151 -9
163 -61 190 -38 19 -78 18 -113 -5 -49 -33 -55 -54 -56 -198 l0 -133 -1444 0
-1444 0 -4 133 c-4 144 -11 167 -61 197 -38 24 -71 25 -113 4z m-46 -791 c32
-57 123 -70 172 -25 36 32 49 78 50 175 l0 67 24 -15 c39 -26 75 -87 88 -148
10 -48 9 -64 -6 -113 -56 -177 -273 -228 -403 -92 -91 95 -84 252 15 340 l37
32 5 -100 c3 -54 11 -109 18 -121z m3130 0 c35 -61 135 -69 185 -13 26 29 27
35 27 130 0 55 4 100 9 100 5 0 27 -19 50 -41 132 -132 62 -358 -122 -399 -83
-18 -163 8 -224 72 -91 95 -84 252 15 340 l37 32 5 -100 c3 -54 11 -109 18
-121z"/>
<path d="M70 2405 c0 -1332 0 -1367 19 -1404 26 -50 81 -97 128 -110 26 -7
482 -11 1406 -11 l1367 0 0 104 c0 516 355 948 873 1062 88 20 306 23 397 5
137 -26 306 -93 407 -162 23 -16 44 -29 47 -29 4 0 5 429 4 953 l-3 952 -2322
3 -2323 2 0 -1365z m1742 968 c16 -15 18 -35 18 -210 0 -115 -4 -202 -10 -214
-10 -18 -23 -19 -225 -19 -210 0 -214 0 -229 22 -13 18 -16 56 -16 210 0 175
1 189 20 208 19 19 33 20 222 20 173 0 204 -2 220 -17z m800 0 c16 -15 18 -35
18 -214 0 -166 -2 -200 -16 -213 -13 -14 -48 -16 -224 -16 -204 0 -209 0 -224
22 -13 18 -16 56 -16 208 0 152 3 190 16 208 15 22 20 22 221 22 178 0 209 -2
225 -17z m800 0 c16 -15 18 -35 18 -214 0 -166 -2 -200 -16 -213 -13 -14 -48
-16 -224 -16 -204 0 -209 0 -224 22 -13 18 -16 56 -16 208 0 152 3 190 16 208
15 22 20 22 221 22 178 0 209 -2 225 -17z m800 0 c16 -15 18 -35 18 -214 0
-166 -2 -200 -16 -213 -24 -24 -419 -24 -446 1 -16 14 -18 35 -18 207 0 157 3
196 16 214 15 22 20 22 221 22 178 0 209 -2 225 -17z m-3200 -780 c16 -15 18
-35 18 -218 0 -143 -3 -204 -12 -213 -9 -9 -73 -12 -225 -12 l-213 0 -15 24
c-14 21 -16 54 -13 216 3 176 5 193 22 206 16 11 63 14 220 14 172 0 202 -2
218 -17z m800 0 c16 -15 18 -35 18 -218 0 -143 -3 -204 -12 -213 -9 -9 -73
-12 -224 -12 -209 0 -213 0 -228 22 -13 18 -16 56 -16 210 0 175 1 189 20 208
19 19 33 20 222 20 173 0 204 -2 220 -17z m800 0 c16 -15 18 -35 18 -210 0
-115 -4 -202 -10 -214 -10 -18 -23 -19 -225 -19 -210 0 -214 0 -229 22 -13 18
-16 56 -16 210 0 175 1 189 20 208 19 19 33 20 222 20 173 0 204 -2 220 -17z
m800 0 c16 -15 18 -35 18 -210 0 -115 -4 -202 -10 -214 -10 -18 -23 -19 -222
-19 -183 0 -214 2 -230 17 -16 14 -18 35 -18 210 0 180 1 194 20 213 19 19 33
20 222 20 173 0 204 -2 220 -17z m800 0 c16 -15 18 -35 18 -214 0 -166 -2
-200 -16 -213 -24 -24 -419 -24 -446 1 -16 14 -18 35 -18 210 0 180 1 194 20
213 19 19 33 20 222 20 173 0 204 -2 220 -17z m-3200 -780 c16 -15 18 -35 18
-218 0 -143 -3 -204 -12 -213 -9 -9 -73 -12 -225 -12 l-213 0 -15 24 c-14 21
-16 54 -13 216 3 176 5 193 22 206 16 11 63 14 220 14 172 0 202 -2 218 -17z
m800 0 c16 -15 18 -35 18 -218 0 -143 -3 -204 -12 -213 -9 -9 -73 -12 -224
-12 -209 0 -213 0 -228 22 -13 18 -16 56 -16 210 0 175 1 189 20 208 19 19 33
20 222 20 173 0 204 -2 220 -17z m800 0 c16 -15 18 -35 18 -218 0 -143 -3
-204 -12 -213 -9 -9 -73 -12 -224 -12 -209 0 -213 0 -228 22 -13 18 -16 56
-16 210 0 175 1 189 20 208 19 19 33 20 222 20 173 0 204 -2 220 -17z"/>
<path d="M3925 1946 c-381 -60 -694 -341 -797 -717 -20 -72 -23 -108 -23 -254
0 -147 3 -180 23 -249 49 -168 135 -317 253 -435 172 -172 394 -272 635 -288
287 -18 558 89 760 298 114 119 179 227 227 374 36 112 47 182 47 307 0 484
-350 890 -830 963 -112 18 -186 18 -295 1z m350 -212 c215 -58 400 -210 495
-409 27 -55 56 -131 65 -168 21 -87 21 -261 1 -350 -62 -267 -263 -485 -531
-574 -71 -23 -96 -26 -225 -27 -126 -1 -155 2 -220 22 -311 97 -521 347 -560
665 -50 410 245 793 665 861 56 9 250 -3 310 -20z"/>
<path d="M4050 1530 c-19 -19 -20 -32 -20 -277 l0 -257 -90 -92 c-51 -51 -90
-100 -90 -111 0 -23 18 -43 38 -43 8 0 61 46 118 102 l104 102 0 288 c0 276
-1 288 -20 298 -15 8 -24 6 -40 -10z"/>
</g>
</svg>
