<?xml version="1.0" standalone="no"?>
<!DOCTYPE svg PUBLIC "-//W3C//DTD SVG 20010904//EN"
 "http://www.w3.org/TR/2001/REC-SVG-20010904/DTD/svg10.dtd">
<svg version="1.0" xmlns="http://www.w3.org/2000/svg"
 width="50px" height="50px" viewBox="0 0 512.000000 512.000000"
 preserveAspectRatio="xMidYMid meet">

<g transform="translate(0.000000,512.000000) scale(0.100000,-0.100000)"
fill="#000000" stroke="none">
<path d="M2412 4869 c-80 -14 -199 -56 -271 -95 -517 -283 -617 -979 -201
-1394 93 -94 200 -161 327 -206 54 -19 105 -43 114 -52 9 -9 52 -95 95 -189
43 -95 81 -173 84 -173 3 0 41 78 84 173 43 94 85 180 93 189 9 9 45 27 82 38
357 114 596 422 618 795 23 406 -239 775 -632 890 -101 30 -296 42 -393 24z
m228 -233 l0 -85 53 -24 c96 -44 166 -138 183 -244 l7 -43 -80 0 -79 0 -12 44
c-31 116 -177 154 -263 67 -59 -59 -65 -149 -13 -211 36 -42 57 -51 140 -61
127 -14 223 -78 274 -184 35 -74 35 -189 -1 -266 -33 -70 -87 -125 -156 -156
l-53 -24 0 -85 0 -84 -80 0 -80 0 0 84 0 85 -53 24 c-95 43 -167 138 -182 240
l-7 47 79 0 79 0 12 -44 c31 -117 175 -153 262 -66 61 61 66 147 14 210 -36
42 -57 51 -140 61 -127 14 -223 78 -274 184 -35 74 -35 189 1 266 33 70 87
125 156 156 l53 24 0 85 0 84 80 0 80 0 0 -84z"/>
<path d="M240 1920 l0 -640 320 0 320 0 0 640 0 640 -320 0 -320 0 0 -640z"/>
<path d="M1920 2480 l0 -80 334 0 333 0 679 -520 679 -519 68 -1 67 0 0 480 0
480 -325 0 -325 0 -384 115 c-212 63 -389 115 -393 115 -4 0 -16 -13 -25 -30
-31 -55 -106 -52 -140 5 l-20 35 -274 0 -274 0 0 -80z"/>
<path d="M4240 1840 l0 -640 320 0 320 0 0 640 0 640 -320 0 -320 0 0 -640z"/>
<path d="M1040 1920 l0 -480 93 0 93 0 739 -544 739 -544 68 91 c38 50 65 94
61 98 -5 3 -132 103 -284 221 l-277 214 45 60 c24 32 47 60 51 61 4 2 151
-110 327 -247 176 -137 323 -250 327 -250 13 0 139 173 131 181 -5 3 -111 87
-238 185 -126 98 -251 194 -276 214 l-46 37 44 59 c24 32 47 60 51 61 4 2 151
-110 327 -247 176 -137 323 -250 327 -250 13 0 139 173 131 181 -5 3 -111 87
-238 185 -126 98 -251 194 -276 214 l-46 37 44 59 c24 32 47 60 51 61 4 2 151
-110 327 -247 176 -137 323 -250 327 -250 12 0 141 177 137 186 -2 5 -287 226
-634 491 l-630 483 -363 0 -363 0 -24 25 c-21 20 -25 34 -25 80 l0 55 -360 0
-360 0 0 -480z"/>
<path d="M1302 1070 c-29 -39 -55 -77 -58 -84 -3 -8 20 -32 60 -60 35 -25 67
-46 70 -46 3 0 32 36 66 80 l61 80 -68 50 c-37 27 -70 50 -73 50 -3 0 -29 -32
-58 -70z"/>
<path d="M1567 863 c-31 -42 -54 -80 -51 -84 2 -4 37 -31 76 -58 l71 -50 60
80 c33 44 58 81 56 83 -44 35 -144 106 -148 106 -4 0 -32 -34 -64 -77z"/>
<path d="M1857 664 c-26 -35 -50 -70 -53 -78 -3 -8 20 -31 60 -60 35 -25 67
-46 70 -46 13 0 118 152 110 159 -25 22 -124 91 -131 91 -4 -1 -30 -30 -56
-66z"/>
<path d="M2123 458 c-29 -39 -50 -75 -47 -79 2 -4 37 -31 76 -58 l71 -50 54
71 c29 39 53 75 53 79 0 9 -134 109 -146 109 -5 -1 -32 -33 -61 -72z"/>
</g>
</svg>
