<?xml version="1.0" standalone="no"?>
<!DOCTYPE svg PUBLIC "-//W3C//DTD SVG 20010904//EN"
 "http://www.w3.org/TR/2001/REC-SVG-20010904/DTD/svg10.dtd">
<svg version="1.0" xmlns="http://www.w3.org/2000/svg"
 width="50px" height="50px" viewBox="0 0 512.000000 512.000000"
 preserveAspectRatio="xMidYMid meet">

<g transform="translate(0.000000,512.000000) scale(0.100000,-0.100000)"
fill="#000000" stroke="none">
<path d="M4585 4391 c-116 -30 -173 -113 -162 -240 l5 -66 -306 -240 c-168
-132 -324 -255 -347 -273 l-42 -32 -44 20 c-55 25 -131 25 -185 1 -70 -32
-124 -115 -124 -193 0 -24 -27 -41 -314 -207 -172 -100 -318 -181 -323 -181
-5 0 -18 9 -29 21 -24 27 -80 55 -125 64 -56 10 -111 -9 -190 -66 -12 -9 -76
22 -337 167 l-322 178 0 34 c0 90 -65 186 -145 212 -135 44 -274 -51 -283
-194 l-4 -62 -323 -172 c-177 -95 -327 -172 -332 -172 -6 0 -17 7 -24 17 -23
27 -91 53 -140 53 -29 0 -64 -9 -98 -26 -161 -81 -153 -309 14 -385 136 -62
295 42 295 193 l0 53 324 173 c178 94 327 172 331 172 3 0 21 -11 38 -24 40
-29 90 -46 136 -46 41 0 116 31 147 61 l22 20 322 -179 323 -179 3 -52 c3 -66
41 -132 96 -169 36 -24 51 -27 119 -27 70 0 81 3 120 30 49 34 87 100 92 160
l4 40 314 182 c173 101 319 183 325 183 7 0 14 -6 17 -14 10 -26 94 -67 149
-72 45 -5 62 -1 108 23 72 37 109 90 117 165 3 31 1 69 -5 85 l-10 30 311 244
c171 134 330 259 352 276 l41 33 39 -20 c72 -37 185 -21 243 33 87 81 87 234
0 313 -52 48 -132 71 -193 55z"/>
<path d="M4390 1970 l0 -1250 240 0 240 0 0 1250 0 1250 -240 0 -240 0 0
-1250z"/>
<path d="M1282 1578 l3 -853 240 0 240 0 3 853 2 852 -245 0 -245 0 2 -852z"/>
<path d="M3352 1568 l3 -843 240 0 240 0 3 843 2 842 -245 0 -245 0 2 -842z"/>
<path d="M250 1305 l0 -585 240 0 240 0 0 585 0 585 -240 0 -240 0 0 -585z"/>
<path d="M2320 1305 l0 -585 240 0 240 0 0 585 0 585 -240 0 -240 0 0 -585z"/>
</g>
</svg>
