<?xml version="1.0" encoding="UTF-8"?>
<svg version="1.1" xmlns="http://www.w3.org/2000/svg" width="683" height="683">
<path d="M0 0 C3.99936804 0.00154767 7.99873224 0.00142368 11.99810028 0.00050974 C12.67669948 0.00035651 13.35529867 0.00020327 14.05446148 0.0000454 C15.43590514 -0.00027454 16.8173488 -0.00059876 18.19879246 -0.00092719 C30.93323708 -0.00372975 43.66767432 -0.00057842 56.40211773 0.00487317 C67.17860206 0.00934463 77.95507561 0.00855206 88.73155975 0.00395441 C101.45475661 -0.00147177 114.17794713 -0.00346397 126.90114498 -0.00043333 C128.27309354 -0.00011499 129.6450421 0.00019938 131.01699066 0.00050974 C131.69085857 0.00066401 132.36472647 0.00081829 133.05901462 0.00097724 C137.66551193 0.00181806 142.27200488 0.00038135 146.87850189 -0.00196981 C161.37627264 -0.00804439 175.87328366 0.01963122 190.37084198 0.1001687 C195.23538879 0.12643929 200.09973247 0.13881619 204.96434784 0.14211512 C211.1202135 0.14787584 217.27522994 0.18428395 223.43082047 0.24194598 C225.73293531 0.25882556 228.03514894 0.26572517 230.33732224 0.26175332 C252.8005552 0.2362525 252.8005552 0.2362525 261.47228241 7.1343255 C262.21263733 7.66808865 262.95299225 8.20185179 263.71578217 8.75178957 C270.85126377 14.05581531 277.72291392 24.00393793 279.30040741 32.84916925 C280.426784 47.82485801 279.29299735 58.74130567 270.47228241 71.1343255 C264.01258765 78.53842008 254.64115483 85.01405293 244.89884675 86.78326452 C240.97222651 87.03323436 237.07755232 87.07447331 233.14636993 87.02994013 C231.63955573 87.0387415 230.13275679 87.05058358 228.62598747 87.06516892 C224.52044541 87.0961064 220.41603283 87.083911 216.31046474 87.06405723 C211.8692605 87.05020746 207.42826385 87.07679614 202.98711395 87.09799433 C194.30050363 87.13288695 185.61430502 87.12999498 176.92765636 87.11313086 C169.86426159 87.10002939 162.80098443 87.10029128 155.73758507 87.10997438 C154.22678002 87.11201642 154.22678002 87.11201642 152.68545366 87.1140997 C150.63900881 87.11691022 148.59256399 87.11974542 146.54611921 87.12260503 C127.37779235 87.14770961 108.20969522 87.1292141 89.04139274 87.09621836 C72.61382896 87.06903624 56.18667771 87.08148812 39.75914764 87.12236261 C20.65864481 87.16988116 1.5583962 87.19104242 -17.54216439 87.17172581 C-19.58117771 87.16974772 -21.62019108 87.16780999 -23.65920448 87.16591311 C-24.66229992 87.16497389 -25.66539536 87.16403467 -26.69888763 87.16306699 C-33.74877651 87.15832304 -40.79848096 87.17245209 -47.84833336 87.19412279 C-56.44720579 87.22011833 -65.04550957 87.21756829 -73.64434367 87.1789289 C-78.02715673 87.15996383 -82.40899017 87.15352547 -86.79177284 87.18217707 C-90.81238219 87.20810107 -94.83114663 87.19640472 -98.85162068 87.15602762 C-100.29762399 87.14785704 -101.74378205 87.15285282 -103.18966608 87.17314243 C-116.69597258 87.34852489 -127.02641865 82.33228938 -136.85193634 73.032763 C-145.11804313 63.6683623 -148.15979533 52.72668121 -147.80896759 40.40385675 C-146.77111474 28.33881736 -142.56383036 19.266827 -133.52771759 11.1343255 C-132.59959259 10.2887005 -131.67146759 9.4430755 -130.71521759 8.5718255 C-125.16493298 4.01369022 -118.72606945 1.05248893 -111.53075409 0.93111086 C-109.98332299 0.90183563 -109.98332299 0.90183563 -108.40463066 0.87196898 C-107.27470003 0.85567341 -106.1447694 0.83937783 -104.98059845 0.82258844 C-103.20024673 0.791893 -103.20024673 0.791893 -101.3839283 0.76057744 C-98.12481017 0.70621265 -94.86566697 0.65656289 -91.60643125 0.60985145 C-89.54539766 0.57998625 -87.48439427 0.54851082 -85.42339134 0.51660419 C-56.94928607 0.07881294 -28.47731341 -0.01459449 0 0 Z " fill="#716EF6" transform="translate(339.52771759033203,84.86567449569702)"/>
<path d="M0 0 C1.2679031 -0.00630794 2.5358062 -0.01261588 3.8421306 -0.01911497 C5.25201557 -0.02109854 6.66190069 -0.0229755 8.07178593 -0.02475739 C9.567402 -0.03020459 11.06301661 -0.03606815 12.55862957 -0.0423131 C16.674662 -0.0581648 20.79068847 -0.06767988 24.90674198 -0.07607794 C28.43581317 -0.0840828 31.96486827 -0.09577322 35.49392878 -0.10749274 C48.13526244 -0.14939833 60.77661501 -0.17660931 73.41799259 -0.20114899 C74.41584314 -0.20312389 75.4136937 -0.20509879 76.44178215 -0.20713353 C96.25900579 -0.246302 116.07623574 -0.28000008 135.89348602 -0.30221558 C140.25053193 -0.30718481 144.60757773 -0.31222914 148.96462345 -0.31735992 C150.04753519 -0.3186306 151.13044692 -0.31990127 152.24617416 -0.32121044 C169.78091779 -0.34256157 187.31547378 -0.39154813 204.85012304 -0.45160407 C222.8570581 -0.51276837 240.86389645 -0.54740973 258.87093407 -0.55668879 C268.97938083 -0.56259504 279.08750983 -0.58030282 289.19585323 -0.62807465 C297.80657405 -0.66873142 306.41692521 -0.68553196 315.02773773 -0.67142183 C319.4184318 -0.66496693 323.80833904 -0.66970654 328.19891071 -0.70529556 C332.22576846 -0.73767302 336.25128948 -0.73716603 340.27818311 -0.71147853 C341.72783512 -0.70785189 343.17757782 -0.71585448 344.62707632 -0.73726004 C357.25840935 -0.91241692 366.32451743 2.84574762 375.73439884 11.26760101 C385.2539086 21.48965761 388.21805174 31.85842074 388.00393009 45.42385101 C387.58620987 56.17167952 383.67478346 65.32399338 376.35939884 73.33010101 C365.78421416 82.83404833 356.45195555 86.34854052 342.33730412 86.15847015 C340.82137306 86.16771104 339.30545998 86.18043214 337.78958368 86.19628811 C333.6633675 86.22941213 329.53864821 86.21330673 325.41242957 86.18839836 C320.94737324 86.17019182 316.48256263 86.19828851 312.01755619 86.22023773 C303.28624569 86.25570621 294.55548708 86.24817443 285.82415545 86.2249366 C278.72454453 86.20682796 271.62508766 86.20443712 264.52546024 86.21312714 C263.51284165 86.214353 262.50022305 86.21557886 261.45691904 86.21684188 C259.39944171 86.21939982 257.34196443 86.22199353 255.28448719 86.22462261 C236.01692849 86.2474043 216.74967488 86.22125407 197.48216623 86.17821968 C180.96989965 86.14248022 164.45808309 86.14868928 147.94582462 86.18556976 C128.74459034 86.22843639 109.54362308 86.24520731 90.34234762 86.22067165 C88.2926776 86.21812341 86.24300754 86.21560844 84.19333744 86.21312714 C83.18500877 86.21189293 82.1766801 86.21065873 81.13779601 86.20938712 C74.05133505 86.202496 66.96504426 86.21410352 59.87860966 86.23296356 C51.23583081 86.25546132 42.59363277 86.24920374 33.95091999 86.20671761 C29.5458338 86.18577261 25.14171397 86.1773191 20.73663616 86.20391083 C16.6956995 86.22793444 12.65661509 86.21435661 8.61584407 86.17209041 C7.16247485 86.1632309 5.70894568 86.1675268 4.25568122 86.18709671 C-8.86802811 86.35012167 -17.9061772 82.07845438 -27.64060116 73.33010101 C-36.65578684 63.46369608 -39.65698121 52.54838341 -39.38278866 39.47853851 C-38.4792841 27.03349183 -33.83454923 18.35833061 -24.82810116 9.83010101 C-17.40048411 3.54715097 -9.71287865 0.03022971 0 0 Z " fill="#716EF6" transform="translate(231.1406011581421,298.8573989868164)"/>
<path d="M0 0 C0.8838058 -0.0019749 1.76761159 -0.0039498 2.67819938 -0.00598454 C20.3083853 -0.04515257 37.93857969 -0.07863961 55.5687952 -0.10106659 C59.40483168 -0.10603306 63.24086804 -0.11107796 67.0769043 -0.11621094 C68.02993623 -0.11748161 68.98296817 -0.11875228 69.96487986 -0.12006146 C85.48314948 -0.14153026 101.00121085 -0.19068822 116.51937515 -0.25045508 C132.53404432 -0.31161884 148.54860527 -0.34625488 164.56338972 -0.3555398 C173.5233407 -0.36143153 182.48293249 -0.37900819 191.44276619 -0.42692566 C199.04806547 -0.46757419 206.65294596 -0.48438342 214.25834907 -0.47027284 C218.13085202 -0.46382558 222.00246272 -0.46850271 225.87482643 -0.50414658 C230.08150553 -0.5425585 234.28625692 -0.52607672 238.49305725 -0.50476074 C240.30588616 -0.5343224 240.30588616 -0.5343224 242.15533787 -0.56448126 C253.97031989 -0.4138437 263.70868161 4.9791349 272.2109375 13.04296875 C282.29374288 24.61952307 283.93843273 35.48605625 283.21484375 50.34375 C282.41970358 60.12547437 277.03567617 69.07953033 269.96484375 75.71875 C259.81479579 83.72374509 251.89371255 86.23538177 238.97085571 86.11911011 C237.44855985 86.12746934 235.92627645 86.13843126 234.4040159 86.15174973 C230.24653449 86.18053396 226.0898502 86.17220996 221.93232632 86.15741611 C217.43863014 86.1479259 212.94510312 86.17299598 208.45146179 86.19345093 C199.65800979 86.2277856 190.86484386 86.22951568 182.07134224 86.21902512 C174.92161016 86.21093146 167.77196242 86.21384097 160.62223434 86.22452164 C159.60336983 86.22601848 158.58450532 86.22751533 157.53476613 86.22905753 C155.46472449 86.23212059 153.39468287 86.23519728 151.32464127 86.23828746 C131.92652077 86.2657226 112.52856173 86.25487272 93.13044493 86.23191704 C75.39885066 86.21205393 57.66767384 86.2379332 39.93614395 86.28578542 C21.71197952 86.33459509 3.48800942 86.35377641 -14.73621905 86.34047997 C-24.96079882 86.33350159 -35.18505763 86.33791947 -45.40958786 86.37298203 C-54.11355657 86.40246095 -62.81697829 86.40365239 -71.52093647 86.3688402 C-75.95829989 86.35184282 -80.39468695 86.34746168 -84.83199883 86.37814331 C-88.90134061 86.40593135 -92.96887412 86.39619914 -97.03811248 86.35766484 C-98.50300686 86.35017199 -99.96804772 86.35591129 -101.43281107 86.37688814 C-112.65748359 86.52609272 -118.96424607 83.87813701 -127.78515625 77.34375 C-128.51130391 76.83481512 -129.23745156 76.32588024 -129.98560369 75.80152309 C-137.03170324 70.71951514 -142.18715448 61.31982752 -143.57421875 52.8125 C-144.84330004 37.9595486 -143.0671279 26.30966525 -133.78515625 14.34375 C-127.9230919 7.89791161 -119.04673061 1.81742341 -110.14307499 1.14388275 C-106.18613515 1.01992029 -102.22939659 0.90044679 -98.27172852 0.80273438 C-97.47001697 0.78205745 -96.66830542 0.76138052 -95.84229958 0.74007702 C-63.90653135 -0.05648728 -31.94378209 0.07058451 0 0 Z " fill="#716EF6" transform="translate(335.78515625,511.65625)"/>
<path d="M0 0 C1.1746582 0.01244751 1.1746582 0.01244751 2.37304688 0.02514648 C13.8267165 0.3541 23.7004246 3.73515087 32.3125 11.4375 C42.96920935 22.83198153 45.05416482 33.62999326 44.78515625 48.78125 C44.37442447 56.51691318 41.73745525 62.06241626 37.3125 68.4375 C36.78398437 69.22253906 36.25546875 70.00757813 35.7109375 70.81640625 C29.82240472 78.45989584 20.6110882 83.35248182 11.3125 85.4375 C-1.93031315 86.71795976 -13.43098002 85.58877164 -24.30078125 77.44921875 C-32.35621198 70.65945308 -39.14650962 62.13008628 -40.6875 51.4375 C-41.38958253 37.00398938 -40.13616939 25.54350579 -30.5 14.3125 C-22.00370205 5.2451394 -12.5500136 -0.17339553 0 0 Z " fill="#716EF6" transform="translate(104.6875,298.5625)"/>
<path d="M0 0 C8.40593726 8.40593726 13.79222894 18.59508763 13.859375 30.57226562 C13.84390625 31.49716797 13.8284375 32.42207031 13.8125 33.375 C13.83570313 34.7681543 13.83570313 34.7681543 13.859375 36.18945312 C13.79876535 46.98554687 8.85875509 56.47310246 1.46484375 64.2578125 C-9.7580745 74.5659402 -20.03433558 76.03611625 -34.80859375 75.78515625 C-42.66624124 75.38493438 -48.22832753 72.85186287 -54.6875 68.3125 C-55.47125 67.78398438 -56.255 67.25546875 -57.0625 66.7109375 C-64.01915446 61.36169184 -69.82714947 52.3172808 -71.48046875 43.6328125 C-72.85016348 28.28189424 -71.32275559 16.33515624 -61.5625 4.1875 C-44.40256897 -14.46136214 -20.09286671 -12.61645119 0 0 Z " fill="#716EF6" transform="translate(135.6875,521.6875)"/>
<path d="M0 0 C9.41503211 6.26099635 14.80571106 14.94447692 18.34375 25.55859375 C18.62643039 29.07435796 18.62143232 32.5952236 18.65625 36.12109375 C18.69975586 37.54905273 18.69975586 37.54905273 18.74414062 39.00585938 C18.85297915 51.30461272 13.7861006 59.77501695 5.5 68.5 C3.53873242 70.36079281 1.53233749 71.97226145 -0.65625 73.55859375 C-1.35234375 74.06777344 -2.0484375 74.57695312 -2.765625 75.1015625 C-9.43603064 78.99263245 -16.25165932 79.04869384 -23.78125 79.12109375 C-24.80669922 79.1358374 -25.83214844 79.15058105 -26.88867188 79.16577148 C-33.67595228 79.07430313 -38.72607016 77.85390786 -44.65625 74.55859375 C-45.96142578 73.83736328 -45.96142578 73.83736328 -47.29296875 73.1015625 C-56.78313243 66.82901622 -63.31669215 58.29015786 -66.3125 47.109375 C-68.44099007 31.31501122 -65.4172696 20.13670486 -56.40625 7.37109375 C-40.91934193 -8.4677895 -19.28834413 -10.55222723 0 0 Z " fill="#716EF6" transform="translate(130.65625,91.44140625)"/>
</svg>
