<?xml version="1.0" encoding="UTF-8"?>
<svg version="1.1" xmlns="http://www.w3.org/2000/svg" width="800" height="800">
<path d="M0 0 C1.17151611 0.24943359 1.17151611 0.24943359 2.36669922 0.50390625 C34.24231884 7.56848027 61.69141154 23.35452927 85 46 C85.55252441 46.53061035 86.10504883 47.0612207 86.67431641 47.60791016 C116.43491561 76.64803268 132.5052426 119.12519818 133.40209961 160.23242188 C133.88766445 200.92808904 121.25285654 236.59534826 97 269 C97.66902344 269.53496094 98.33804687 270.06992187 99.02734375 270.62109375 C100.00832031 271.40613281 100.98929688 272.19117188 102 273 C102.56734863 273.45262207 103.13469727 273.90524414 103.71923828 274.37158203 C112.78303451 281.61447285 121.60383208 288.98710936 130 297 C130.87269531 297.83144531 131.74539063 298.66289063 132.64453125 299.51953125 C138.58815955 305.31707959 143.91722489 311.43829032 149 318 C149.41862305 318.53689453 149.83724609 319.07378906 150.26855469 319.62695312 C175.89727872 352.7220141 198.75061746 398.21480463 198 441 C193.42288714 443.31627784 188.83634188 445.6122775 184.23925781 447.88867188 C182.8486603 448.57881578 181.45966938 449.27221928 180.07324219 449.97070312 C169.82195868 455.12094796 159.25109967 459.35874437 148.5625 463.5 C147.85825897 463.77356323 147.15401794 464.04712646 146.42843628 464.32897949 C144.41369369 465.10943333 142.39686447 465.88415335 140.37890625 466.65625 C139.1988501 467.10806641 138.01879395 467.55988281 136.80297852 468.02539062 C134 469 134 469 132 469 C131.96261719 467.86046875 131.92523437 466.7209375 131.88671875 465.546875 C129.98329995 416.47747254 111.47550035 373.76331548 75.8125 339.9375 C60.56096255 326.4917794 42.99753961 316.36262845 24.1875 308.75 C13.78375789 304.40382134 8.54684663 298.27367076 4 288 C1.21591943 279.6477583 2.2497399 269.50558875 5.62890625 261.51953125 C9.79130155 253.87068519 15.77638738 249.26161637 22.93041992 244.50854492 C44.13927735 230.27254625 57.20244061 208.56198153 63 184 C68.08568023 157.15239277 62.46171163 130.66892267 47.61621094 108.02026367 C32.69901163 86.29046058 9.39051914 71.39982611 -16.48828125 66.53125 C-43.38927655 62.46168898 -68.80368698 68.23713138 -91.375 83.4375 C-111.69021618 98.51227515 -126.75236293 120.51279734 -131.52734375 145.6171875 C-134.26805898 166.90843639 -132.3758294 187.61595389 -123 207 C-122.57074219 207.89847656 -122.14148438 208.79695312 -121.69921875 209.72265625 C-113.89063121 225.00989101 -102.75075965 236.46236195 -88.671875 246.01757812 C-79.70700342 252.27621721 -73.3543056 259.09218176 -71 270 C-69.81205743 280.86293876 -71.58240817 289.23691179 -77.6875 298.25 C-83.8256413 305.79071413 -92.23346151 309.0696116 -100.92626953 312.83691406 C-140.20543921 330.0170223 -171.15020051 362.18499784 -187.25 401.875 C-195.79398241 423.72859909 -199.23295448 445.61833649 -200 469 C-207.77140009 466.85856688 -215.17454829 464.06458667 -222.625 461 C-223.7898291 460.52304687 -224.9546582 460.04609375 -226.15478516 459.5546875 C-258.8316811 446.05088845 -258.8316811 446.05088845 -266 441 C-271.09352802 401.37866261 -241.86351035 350.68647491 -218.85302734 320.42797852 C-212.99602321 312.89377021 -206.60690487 305.87842151 -200 299 C-199.1440625 298.1028125 -198.288125 297.205625 -197.40625 296.28125 C-187.58141649 286.20768653 -176.49112357 278.03539882 -165 270 C-165.97868179 268.45802548 -166.95799116 266.91644929 -167.9375 265.375 C-168.57816406 264.36179687 -169.21882813 263.34859375 -169.87890625 262.3046875 C-171.27716938 260.12617809 -172.70126842 257.96400637 -174.15234375 255.8203125 C-197.7043052 220.63724179 -206.88868145 175.43200478 -199.0390625 133.7265625 C-189.33381828 87.74724446 -163.64152134 48.3125121 -124.18798828 22.39160156 C-105.45962402 10.48001082 -84.68643676 3.28594766 -63 -1 C-61.78957031 -1.24621094 -60.57914063 -1.49242187 -59.33203125 -1.74609375 C-39.98235466 -4.97475095 -19.14419428 -4.08709842 0 0 Z " fill="#6A8DC3" transform="translate(434,236)"/>
<path d="M0 0 C6.89248493 5.96835287 12.88650722 12.21279368 18.57788086 19.32202148 C19.07175293 19.93343994 19.565625 20.5448584 20.07446289 21.17480469 C23.57788086 25.64932594 23.57788086 25.64932594 23.57788086 29.00952148 C22.98587891 29.12432861 22.39387695 29.23913574 21.78393555 29.35742188 C1.57717798 33.34231906 -16.54920581 39.02572812 -34.82250977 48.62915039 C-35.7409668 49.09627441 -36.65942383 49.56339844 -37.60571289 50.04467773 C-38.41580811 50.47143799 -39.22590332 50.89819824 -40.06054688 51.33789062 C-43.19040162 52.22802093 -44.59155603 51.49921353 -47.42211914 50.00952148 C-48.89750844 48.84775468 -50.33299034 47.63428642 -51.73461914 46.38452148 C-72.3230183 29.52834327 -98.62032218 25.44904158 -124.42211914 27.00952148 C-148.59052702 29.60040287 -171.48212018 42.99656652 -187.23071289 61.22436523 C-204.88088791 83.65676237 -211.68132444 110.03957454 -209.2199707 138.33325195 C-206.27198428 162.36768465 -193.42488517 186.17734669 -174.35302734 201.23364258 C-171.74511056 203.21315937 -169.09650702 205.120275 -166.42211914 207.00952148 C-157.78417639 213.15928433 -150.90914039 219.26503081 -148.42211914 230.00952148 C-147.26710766 241.61856545 -148.40326717 251.16249978 -155.67211914 260.63452148 C-160.89626157 266.13921971 -167.47877203 268.92376738 -174.2800293 272.02563477 C-199.91697376 283.80098081 -223.21524733 299.35781785 -240.42211914 322.00952148 C-241.29148623 323.10491067 -242.16129871 324.19994648 -243.03149414 325.29467773 C-263.34433292 351.35281748 -273.92792279 383.30119814 -276.42211914 416.00952148 C-276.47851562 416.7462207 -276.53491211 417.48291992 -276.59301758 418.24194336 C-276.90915254 422.49573575 -277.18341774 426.75058596 -277.42211914 431.00952148 C-284.97452726 425.84855173 -291.19356536 419.50841762 -297.60400391 413.03344727 C-299.47841766 411.14078334 -301.36070339 409.25623868 -303.24438477 407.37280273 C-309.17922027 401.4207188 -315.00803303 395.44563125 -320.42211914 389.00952148 C-321.46492067 387.80902485 -322.50918663 386.60979869 -323.55493164 385.41186523 C-324.55273244 384.25726717 -325.55013232 383.10232249 -326.54711914 381.94702148 C-327.04598633 381.3740332 -327.54485352 380.80104492 -328.05883789 380.21069336 C-337.24159319 369.55342252 -337.24159319 369.55342252 -337.68383789 365.77124023 C-337.4943457 365.08674805 -337.30485352 364.40225586 -337.10961914 363.69702148 C-336.87500977 362.8372168 -336.64040039 361.97741211 -336.39868164 361.09155273 C-336.07641602 360.07448242 -335.75415039 359.05741211 -335.42211914 358.00952148 C-334.8768457 356.12813477 -334.8768457 356.12813477 -334.32055664 354.20874023 C-324.73558134 322.47345732 -307.26348574 293.74256198 -285.42211914 269.00952148 C-284.74729492 268.23995117 -284.74729492 268.23995117 -284.05883789 267.45483398 C-271.77821325 253.51083944 -257.89770926 241.32658157 -242.42211914 231.00952148 C-243.81945808 228.02002232 -245.46770283 225.4764571 -247.42211914 222.82202148 C-273.41029114 185.86586838 -283.96612658 141.23748641 -276.90087891 96.43432617 C-273.97727716 80.09304973 -268.71859854 64.8833842 -261.42211914 50.00952148 C-261.11048828 49.35790039 -260.79885742 48.7062793 -260.4777832 48.03491211 C-253.44660209 33.43684084 -243.617738 20.67713102 -232.42211914 9.00952148 C-231.54426758 8.06850586 -230.66641602 7.12749023 -229.76196289 6.15795898 C-217.780218 -6.45407989 -203.86555116 -16.08449649 -188.42211914 -23.99047852 C-187.49665283 -24.46759277 -187.49665283 -24.46759277 -186.55249023 -24.9543457 C-125.01433267 -56.25491269 -51.63039809 -44.0920132 0 0 Z " fill="#6A8DC3" transform="translate(344.422119140625,174.990478515625)"/>
<path d="M0 0 C3.86707015 3.36586452 7.5790703 6.87225914 11.21386719 10.48681641 C11.69162598 10.96054688 12.16938477 11.43427734 12.66162109 11.92236328 C35.96869582 35.36611282 50.00923232 66.32889064 56.21386719 98.48681641 C56.34519043 99.16454102 56.47651367 99.84226562 56.61181641 100.54052734 C62.35610875 132.0092593 57.38522702 166.46711511 44.21386719 195.48681641 C43.92141113 196.13215332 43.62895508 196.77749023 43.32763672 197.44238281 C38.13597313 208.70793551 31.98299098 219.79119425 23.85449219 229.22509766 C23.31308594 229.97146484 22.77167969 230.71783203 22.21386719 231.48681641 C23.55554844 235.51186015 26.21228832 236.78722925 29.58886719 239.04931641 C35.41333678 243.07196631 40.61439584 247.34730629 45.77636719 252.20166016 C47.83035149 254.12727044 49.92520369 255.93827112 52.08886719 257.73681641 C67.72672775 271.43188777 80.61474588 288.68926146 91.21386719 306.48681641 C91.6117041 307.15229492 92.00954102 307.81777344 92.41943359 308.50341797 C101.2151413 323.37684645 108.17900268 338.99608879 113.71386719 355.36181641 C113.95717773 356.08046875 114.20048828 356.79912109 114.45117188 357.53955078 C115.8379148 361.81922165 117.01447264 365.96541034 117.21386719 370.48681641 C115.98339844 372.86572266 115.98339844 372.86572266 114.02636719 375.04931641 C113.28257812 375.90267578 112.53878906 376.75603516 111.77246094 377.63525391 C110.928125 378.57626953 110.08378906 379.51728516 109.21386719 380.48681641 C108.30491139 381.5589522 107.40011289 382.63462333 106.49902344 383.71337891 C96.00919823 396.23164315 84.76658982 408.01274488 73.27636719 419.61181641 C72.08708618 420.82067505 72.08708618 420.82067505 70.8737793 422.05395508 C66.56585329 426.36824904 62.297587 430.11572124 57.21386719 433.48681641 C57.17946533 432.83011963 57.14506348 432.17342285 57.10961914 431.49682617 C54.74370717 389.14883595 43.46640767 350.88998053 15.21386719 318.48681641 C14.57795654 317.75035889 14.57795654 317.75035889 13.92919922 316.99902344 C7.61120042 309.72074422 0.9254425 303.30648524 -6.78613281 297.48681641 C-7.31045898 297.0875293 -7.83478516 296.68824219 -8.375 296.27685547 C-20.51577351 287.09059979 -33.25382456 279.94473991 -47.22363281 273.92431641 C-58.8016342 268.86580786 -65.99862728 263.51969862 -70.78613281 251.48681641 C-73.54944515 243.1968794 -72.95929474 232.70074529 -69.22363281 224.86181641 C-64.85109281 217.42242543 -59.79551548 213.10948622 -52.66113281 208.36181641 C-30.29532881 193.45344669 -16.77238051 169.71895169 -11.47363281 143.73681641 C-7.66900312 116.81174474 -14.11114738 90.9462926 -29.68847656 68.77978516 C-46.1590145 47.3916633 -67.40427186 35.47093269 -93.51660156 29.90478516 C-119.8345793 26.54036028 -144.99074022 32.34871504 -166.78613281 47.48681641 C-169.13902544 49.42220327 -171.45360825 51.36165449 -173.68847656 53.43212891 C-175.78613281 54.48681641 -175.78613281 54.48681641 -178.45800781 53.95556641 C-181.86411671 52.45240098 -185.18788358 50.83947896 -188.51025391 49.16088867 C-204.80836163 40.98108946 -222.14899038 34.94507371 -240.18847656 32.05712891 C-242.78613281 31.48681641 -242.78613281 31.48681641 -244.78613281 29.48681641 C-214.70764342 -7.9157496 -176.17435764 -33.51498829 -127.69238281 -39.00927734 C-81.16084925 -43.44793473 -35.74344189 -30.28128114 0 0 Z " fill="#6A8DC3" transform="translate(675.7861328125,172.51318359375)"/>
</svg>
