<?xml version="1.0" encoding="UTF-8"?>
<svg version="1.1" xmlns="http://www.w3.org/2000/svg" width="800" height="800">
<path d="M0 0 C0.81034698 -0.00979385 1.62069397 -0.01958771 2.45559692 -0.02967834 C20.37552694 -0.20166635 37.7042228 -0.05363368 55.21484375 4.23828125 C56.10574707 4.45258789 56.99665039 4.66689453 57.91455078 4.88769531 C91.18919549 13.12393416 136.60935042 32.31020845 155.31079102 63.0390625 C164.1467288 79.2171299 168.34756546 95.18388303 163.71484375 113.48828125 C158.3781111 129.59145364 147.41846489 145.11668876 132.21484375 153.23828125 C120.20556631 158.38319541 109.39554373 159.85032792 96.46484375 158.98828125 C91.91036782 156.53587113 90.61778382 153.13610918 88.203125 148.66015625 C76.12808234 127.87874689 55.25283012 115.70567556 32.73828125 109.1484375 C8.59519562 102.91191981 -16.88926144 107.80420553 -38.1484375 120.19921875 C-44.19265868 124.16965952 -49.50438068 128.67253648 -54.75234985 133.62080383 C-55.40242528 134.23103466 -56.0525007 134.84126549 -56.72227538 135.46998817 C-63.85986311 142.20216109 -70.81174224 149.11662501 -77.74755859 156.05541992 C-79.17337893 157.47823792 -80.59940037 158.90085441 -82.02560425 160.32328796 C-85.84990788 164.13886429 -89.67106512 167.95757577 -93.49132872 171.77719665 C-95.88580862 174.17096047 -98.28100139 176.56400867 -100.67644119 178.9568119 C-109.05357326 187.32473335 -117.42816057 195.69519167 -125.80029297 204.06811523 C-133.57511232 211.8435367 -141.35551006 219.61334524 -149.13850439 227.38058299 C-155.8524564 234.08143163 -162.562519 240.78615842 -169.26960337 247.49388105 C-173.26190519 251.48643669 -177.25571264 255.47745583 -181.25345993 259.46455956 C-185.00909321 263.21046257 -188.75982943 266.96120249 -192.50697708 270.71559334 C-193.87536237 272.08501781 -195.24542728 273.45276652 -196.61737061 274.8186264 C-218.96396052 297.07259241 -234.87118391 319.98989874 -235.22265625 352.55078125 C-235.1191824 377.86801017 -225.73966879 401.18258485 -207.78515625 419.23828125 C-187.12662789 438.7037639 -161.67624054 445.237066 -133.89453125 444.421875 C-101.28601803 442.49649796 -78.97442836 419.80681737 -57.48086739 397.9009304 C-54.48288644 394.84635439 -51.47328977 391.80339263 -48.46141052 388.76252747 C-39.90981162 380.12625526 -31.36424599 371.48423684 -22.85083008 362.81030273 C-18.12389426 357.99443081 -13.38289187 353.19289762 -8.62542289 348.40718061 C-6.11766929 345.88330765 -3.61784388 343.3525629 -1.13537788 340.80379295 C1.62066569 337.97421467 4.40721594 335.17595597 7.19702148 332.37963867 C8.01012787 331.53462799 8.82323425 330.68961731 9.66098022 329.81900024 C15.2893801 324.25036441 15.2893801 324.25036441 20.13111877 324.18714905 C21.65756264 324.70745949 21.65756264 324.70745949 23.21484375 325.23828125 C24.38176758 325.57327637 24.38176758 325.57327637 25.57226562 325.91503906 C26.26900391 326.17124023 26.96574219 326.42744141 27.68359375 326.69140625 C28.49038574 326.97862549 29.29717773 327.26584473 30.12841797 327.56176758 C30.98193848 327.86751709 31.83545898 328.1732666 32.71484375 328.48828125 C72.63246211 342.26606899 112.91002634 341.4498958 154.21484375 336.23828125 C150.19335495 341.05722696 145.99159867 345.60847134 141.55126953 350.04229736 C140.58446935 351.01355423 140.58446935 351.01355423 139.59813786 352.00443244 C137.45450152 354.1566864 135.30735628 356.30540336 133.16015625 358.45410156 C131.6153127 360.00357827 130.07066552 361.55325078 128.52619934 363.10310364 C124.34026981 367.30211278 120.15104491 371.49781856 115.96079636 375.69251728 C113.33800905 378.318243 110.71580675 380.94455158 108.09378052 383.57103729 C99.40406136 392.27520484 90.71178869 400.97681292 82.01688397 409.67580035 C81.31509135 410.37792713 81.31509135 410.37792713 80.59912109 411.09423828 C80.1306787 411.5629021 79.66223631 412.03156593 79.17959869 412.51443169 C72.07269195 419.62503535 64.9713599 426.74117113 57.87353516 433.86083984 C49.60951431 442.15020846 41.34025307 450.43430323 33.06430054 458.71176028 C28.69184633 463.0852582 24.32181167 467.46110755 19.95782471 471.84305573 C15.84732298 475.97014636 11.72958363 480.08988082 7.60642052 484.20432091 C6.10354048 485.70643629 4.60316969 487.21106758 3.10566139 488.71853828 C-8.27267829 500.16805405 -20.08718775 510.46476831 -33.59765625 519.36328125 C-34.35135498 519.85989258 -35.10505371 520.35650391 -35.8815918 520.86816406 C-64.19601309 539.23459439 -98.61681635 551.13455051 -132.5703125 551.4765625 C-133.38065948 551.48635635 -134.19100647 551.49615021 -135.02590942 551.50624084 C-152.94583944 551.67822885 -170.2745353 551.53019618 -187.78515625 547.23828125 C-188.67605957 547.02397461 -189.56696289 546.80966797 -190.48486328 546.58886719 C-226.66556486 537.63331252 -256.80976224 519.67431854 -283.78515625 494.23828125 C-284.96078125 493.14386719 -284.96078125 493.14386719 -286.16015625 492.02734375 C-318.39041292 461.06327573 -340.65614929 412.69338489 -341.9621582 367.92553711 C-341.98820793 366.43482073 -342.00842005 364.94399333 -342.0234375 363.453125 C-342.03323135 362.64277802 -342.04302521 361.83243103 -342.05311584 360.99752808 C-342.22519385 343.06822074 -342.05008637 325.76201032 -337.78515625 308.23828125 C-337.47964844 306.93383057 -337.47964844 306.93383057 -337.16796875 305.60302734 C-331.38241466 281.5188728 -321.06350522 258.92609341 -306.97265625 238.61328125 C-306.31740967 237.66497437 -306.31740967 237.66497437 -305.64892578 236.69750977 C-295.92640389 223.09181332 -284.11286295 211.27021699 -272.31494141 199.4934082 C-270.69018445 197.86429333 -269.0658424 196.23476458 -267.44187927 194.6048584 C-263.06841932 190.21811648 -258.68868964 185.83768772 -254.30731249 181.45885491 C-250.63522587 177.78784493 -246.96613566 174.11384709 -243.29697549 170.4399125 C-234.14211192 161.27336223 -224.98101966 152.11306518 -215.81708781 142.95558163 C-207.88933337 135.0329977 -199.96982935 127.10222478 -192.05416615 119.16756175 C-183.88946845 110.98341953 -175.71900842 102.80507125 -167.54285467 94.63237351 C-162.96730842 90.05863194 -158.39396596 85.48274291 -153.82631302 80.90111732 C-149.53031064 76.5924628 -145.22699969 72.29123927 -140.91818428 67.99539948 C-139.34758688 66.42715099 -137.7794878 64.85639537 -136.21422768 63.28281975 C-100.13246179 27.02337082 -52.27874342 0.52660136 0 0 Z " fill="#6A8DC3" transform="translate(341.78515625,248.76171875)"/>
<path d="M0 0 C0.81034698 -0.00979385 1.62069397 -0.01958771 2.45559692 -0.02967834 C20.37552694 -0.20166635 37.7042228 -0.05363368 55.21484375 4.23828125 C56.10574707 4.45258789 56.99665039 4.66689453 57.91455078 4.88769531 C93.25323828 13.63483216 123.39258993 30.98514756 149.78173828 55.88867188 C151.09327411 57.12379454 152.41713212 58.34579882 153.7421875 59.56640625 C181.09210497 85.63083328 197.92353695 121.88564171 206.21484375 158.23828125 C206.39418457 159.01913086 206.57352539 159.79998047 206.75830078 160.60449219 C212.35291272 186.57193628 211.54470957 217.54815017 205.21484375 243.23828125 C204.98990234 244.15577148 204.76496094 245.07326172 204.53320312 246.01855469 C193.78364593 288.55778033 170.35003202 321.43252052 139.74462891 351.9831543 C138.11987195 353.61226917 136.4955299 355.24179792 134.87156677 356.8717041 C130.49810682 361.25844602 126.11837714 365.63887478 121.73699999 370.01770759 C118.06491337 373.68871757 114.39582316 377.36271541 110.72666299 381.03665 C101.57179942 390.20320027 92.41070716 399.36349732 83.24677531 408.52098087 C75.31902087 416.4435648 67.39951685 424.37433772 59.48385365 432.30900075 C51.31915595 440.49314297 43.14869592 448.67149125 34.97254217 456.84418899 C30.39699592 461.41793056 25.82365346 465.99381959 21.25600052 470.57544518 C16.95999814 474.8840997 12.65668719 479.18532323 8.34787178 483.48116302 C6.77727438 485.04941151 5.2091753 486.62016713 3.64391518 488.19374275 C-35.56048979 527.59120806 -84.85308142 551.35612268 -141.01309204 551.67453003 C-155.12288207 551.68136076 -168.97357206 551.38285562 -182.78515625 548.23828125 C-183.58791992 548.0666748 -184.39068359 547.89506836 -185.21777344 547.71826172 C-203.11665558 543.85019507 -219.91315876 537.73738619 -236.07470703 529.14208984 C-237.58024978 528.3465547 -239.10154859 527.58099044 -240.625 526.8203125 C-254.97457552 519.46210911 -267.9883651 509.16062494 -279.78515625 498.23828125 C-280.4915625 497.58859375 -281.19796875 496.93890625 -281.92578125 496.26953125 C-293.13257604 484.75985012 -298.33324256 467.75419592 -298.203125 452.07177734 C-297.57352763 433.23501101 -288.14189999 417.8623766 -274.78515625 405.23828125 C-264.84636587 396.55978692 -251.99087267 392.13713615 -238.84765625 392.05078125 C-237.86925781 392.03660156 -236.89085937 392.02242188 -235.8828125 392.0078125 C-232.17892633 392.28338537 -229.24102977 392.84627632 -225.78515625 394.23828125 C-223.73828125 396.8203125 -223.73828125 396.8203125 -222.03515625 400.05078125 C-209.42208454 422.36188976 -189.57994333 435.25699406 -165.30859375 442.328125 C-141.63335879 448.44378991 -117.14973905 443.64349206 -95.97265625 432.23828125 C-91.22458491 429.34031191 -87.04635535 426.09445902 -82.86227417 422.4359436 C-82.21179387 421.86887211 -81.56131357 421.30180063 -80.89112175 420.71754515 C-73.42109592 414.13360758 -66.39091933 407.1250217 -59.36376953 400.07568359 C-57.88890419 398.60353675 -56.41361559 397.13181385 -54.9379425 395.66047668 C-50.97709555 391.70865076 -47.02248425 387.75064205 -43.06933832 383.79111433 C-38.90860678 379.62527278 -34.74294487 375.46436573 -30.57809448 371.30264282 C-23.59306328 364.3212352 -16.61222564 357.33565526 -9.63378906 350.34765625 C-1.5877768 342.29074549 6.4654375 334.24108738 14.52239597 326.19512403 C21.47000367 319.25661482 28.41367838 312.31418778 35.3541261 305.36851656 C39.48641367 301.23312555 43.62000597 297.099063 47.75716782 292.96854782 C51.64421314 289.08731335 55.52626948 285.20115474 59.40465736 281.31126976 C60.82143085 279.89187033 62.23987444 278.47413546 63.66018105 277.05827141 C86.13964577 254.64260539 102.29813399 231.74026203 102.65234375 198.92578125 C102.5488699 173.60855233 93.16935629 150.29397765 75.21484375 132.23828125 C54.54775334 112.76473101 29.09792204 106.24033304 1.30664062 107.06347656 C-32.74870466 108.98890512 -55.84098897 134.05059541 -78.24293137 156.8348484 C-81.11300119 159.75262996 -83.99128894 162.66221523 -86.87149048 165.56999207 C-87.36134001 166.06458083 -87.85118954 166.5591696 -88.355883 167.06874591 C-89.3555098 168.0779686 -90.35516566 169.0871625 -91.35485005 170.09632814 C-98.03946021 176.84450434 -104.71949088 183.59690964 -111.37353516 190.37524414 C-115.89421397 194.98024319 -120.42885655 199.5709632 -124.98035109 204.14551371 C-127.37943061 206.55785435 -129.77079386 208.9768572 -132.14515305 211.41355324 C-134.78485587 214.11577366 -137.44823066 216.79229439 -140.11865234 219.46411133 C-140.89592682 220.27171906 -141.67320129 221.07932678 -142.47402954 221.91140747 C-147.86465524 227.23161963 -147.86465524 227.23161963 -152.67947388 227.26646423 C-153.70434906 226.92716385 -154.72922424 226.58786346 -155.78515625 226.23828125 C-156.95208008 225.90328613 -156.95208008 225.90328613 -158.14257812 225.56152344 C-158.83931641 225.30532227 -159.53605469 225.04912109 -160.25390625 224.78515625 C-161.06069824 224.49793701 -161.86749023 224.21071777 -162.69873047 223.91479492 C-163.55225098 223.60904541 -164.40577148 223.3032959 -165.28515625 222.98828125 C-181.29883937 217.46106956 -197.9246526 213.91071875 -214.78515625 212.23828125 C-215.89246094 212.12742188 -216.99976563 212.0165625 -218.140625 211.90234375 C-241.20938758 209.93791518 -263.90104492 212.3853549 -286.78515625 215.23828125 C-282.76366745 210.41933554 -278.56191117 205.86809116 -274.12158203 201.43426514 C-273.15478185 200.46300827 -273.15478185 200.46300827 -272.16845036 199.47213006 C-270.02481402 197.3198761 -267.87766878 195.17115914 -265.73046875 193.02246094 C-264.1856252 191.47298423 -262.64097802 189.92331172 -261.09651184 188.37345886 C-256.91058231 184.17444972 -252.72135741 179.97874394 -248.53110886 175.78404522 C-245.90832155 173.1583195 -243.28611925 170.53201092 -240.66409302 167.90552521 C-231.97437386 159.20135766 -223.28210119 150.49974958 -214.58719647 141.80076215 C-214.11933472 141.33267763 -213.65147297 140.86459311 -213.16943359 140.38232422 C-212.7009912 139.9136604 -212.23254881 139.44499657 -211.74991119 138.96213081 C-204.64300445 131.85152715 -197.5416724 124.73539137 -190.44384766 117.61572266 C-182.17982681 109.32635404 -173.91056557 101.04225927 -165.63461304 92.76480222 C-161.26215883 88.3913043 -156.89212417 84.01545495 -152.52813721 79.63350677 C-148.41763548 75.50641614 -144.29989613 71.38668168 -140.17673302 67.27224159 C-138.67385298 65.77012621 -137.17348219 64.26549492 -135.67597389 62.75802422 C-99.83727144 26.69513628 -51.89151409 0.52270081 0 0 Z " fill="#6A8DC3" transform="translate(590.78515625,-0.23828125)"/>
</svg>
