<?xml version="1.0" encoding="UTF-8"?>
<svg version="1.1" xmlns="http://www.w3.org/2000/svg" width="683" height="683">
<path d="M0 0 C21.45 0 42.9 0 65 0 C65 110.22 65 220.44 65 334 C43.55 334 22.1 334 0 334 C0 223.78 0 113.56 0 0 Z " fill="#6A8DC3" transform="translate(585,253)"/>
<path d="M0 0 C7.43300066 5.02720503 11.64479449 10.67907878 13.5234375 19.44140625 C14.73976656 28.07734257 13.42116037 36.03918583 8.3984375 43.25390625 C2.96662634 50.03608388 -4.2234271 53.19339814 -12.76953125 54.38671875 C-19.04449168 54.6470533 -23.88696728 53.24976143 -29.58984375 50.6796875 C-31.92883649 49.78386108 -31.92883649 49.78386108 -33.94921875 50.60546875 C-36.6721002 52.45702814 -39.27719779 54.4130282 -41.875 56.4375 C-42.44162354 56.87779541 -43.00824707 57.31809082 -43.59204102 57.77172852 C-45.39789433 59.17710716 -47.19942814 60.58786284 -49 62 C-49.57637207 62.45117188 -50.15274414 62.90234375 -50.74658203 63.3671875 C-54.83724097 66.57028338 -58.91930985 69.78422016 -63 73 C-71.41702036 79.62952832 -79.85761347 86.22761923 -88.31835938 92.80126953 C-92.97162345 96.41816086 -97.61676818 100.04498484 -102.25 103.6875 C-102.80405518 104.12239746 -103.35811035 104.55729492 -103.92895508 105.00537109 C-106.91940201 107.35485171 -109.8997836 109.71619817 -112.87109375 112.08984375 C-113.50950195 112.59749268 -114.14791016 113.1051416 -114.80566406 113.62817383 C-116.03045601 114.60238237 -117.25261073 115.57991878 -118.47167969 116.5612793 C-120.97918907 118.551477 -122.9355349 119.97851163 -126 121 C-125.83242188 121.89460938 -125.66484375 122.78921875 -125.4921875 123.7109375 C-123.88219187 133.26901282 -123.27714785 141.88495642 -128.68359375 150.34375 C-133.95654689 156.97796998 -140.8992718 162.02508956 -149.37109375 163.37890625 C-158.44649424 163.82904611 -167.94364019 160.72137282 -175 155 C-175.33 154.34 -175.66 153.68 -176 153 C-181.23475058 153.55599555 -185.31372487 156.1493666 -189.8125 158.6875 C-190.68632324 159.17444336 -191.56014648 159.66138672 -192.46044922 160.16308594 C-201.26313987 165.09433058 -209.96989981 170.1907228 -218.671875 175.296875 C-226.45372984 179.86033858 -234.27401326 184.35671673 -242.09619141 188.85058594 C-244.11141256 190.01025556 -246.12313986 191.17602363 -248.13085938 192.34863281 C-250.04099136 193.44803145 -251.96988126 194.51547273 -253.91601562 195.54980469 C-259.18951632 198.30536043 -259.18951632 198.30536043 -262.421875 203.078125 C-262.58429688 204.64820313 -262.58429688 204.64820313 -262.75 206.25 C-264.142129 214.66998024 -267.19744534 221.07921961 -273.9375 226.5 C-281.94794575 231.83025901 -291.23493022 232.13611859 -300.55859375 230.5703125 C-307.44576921 228.63665145 -312.73347535 224.55445058 -316.57421875 218.53125 C-320.39262994 211.26642182 -321.13945686 205.08849814 -321 197 C-321.71430176 196.72776611 -322.42860352 196.45553223 -323.16455078 196.17504883 C-326.00652178 194.99729729 -328.65875961 193.65674239 -331.3671875 192.19921875 C-332.40528564 191.64121582 -333.44338379 191.08321289 -334.51293945 190.50830078 C-335.62241943 189.90743652 -336.73189941 189.30657227 -337.875 188.6875 C-339.03539795 188.06085449 -340.1957959 187.43420898 -341.39135742 186.78857422 C-349.66754179 182.30881443 -357.87661537 177.71623025 -366.05712891 173.06420898 C-373.60481377 168.77578136 -381.18174637 164.54234817 -388.77816772 160.34100342 C-390.08485748 159.61801952 -391.39103711 158.8941128 -392.69668579 158.16925049 C-394.52034227 157.15714064 -396.3458209 156.14840112 -398.171875 155.140625 C-399.2247168 154.55829102 -400.27755859 153.97595703 -401.36230469 153.37597656 C-403.99689459 151.91303323 -403.99689459 151.91303323 -407 151 C-408.7162808 152.08264274 -408.7162808 152.08264274 -410.4375 153.6875 C-416.61598702 158.53959623 -424.06031085 161.46964889 -432 161.125 C-437.24906277 160.32788869 -441.63662074 157.93079542 -446.23828125 155.375 C-449.7157886 153.64362435 -452.42284117 152.50261087 -456.23803711 153.70581055 C-456.9935083 154.09551025 -457.74897949 154.48520996 -458.52734375 154.88671875 C-459.38996826 155.32411377 -460.25259277 155.76150879 -461.14135742 156.2121582 C-462.06408447 156.699021 -462.98681152 157.18588379 -463.9375 157.6875 C-464.91114502 158.18789795 -465.88479004 158.6882959 -466.88793945 159.20385742 C-474.44766147 163.11481363 -481.92172571 167.18409277 -489.37451172 171.29443359 C-497.96318617 176.02132134 -506.65862236 180.53271444 -515.37573242 185.0168457 C-517.50703578 186.11423195 -519.63409127 187.21991164 -521.7565918 188.33422852 C-524.04098172 189.50746091 -526.31556514 190.61906592 -528.64379883 191.69506836 C-534.70139192 194.33027114 -534.70139192 194.33027114 -539.14526367 198.92260742 C-539.59018412 201.01412044 -539.65268591 202.80369616 -539.5625 204.9375 C-539.62575289 206.35332937 -539.69855468 207.76876683 -539.78125 209.18359375 C-539.8534375 210.44300781 -539.925625 211.70242188 -540 213 C-541.9883831 220.68131329 -548.26797723 226.06148479 -554.82421875 230.1328125 C-562.28246794 233.71416293 -570.30950094 233.64776698 -578 231 C-586.04459848 227.76320027 -591.3148655 222.54227049 -595.09765625 214.734375 C-598.32128008 206.15803626 -597.65323291 198.31425422 -594 190 C-589.39030881 181.60377677 -583.20147137 177.33828234 -574.12109375 174.62890625 C-565.91896678 172.97616227 -558.13324041 174.69033392 -551 179 C-550.319375 179.83917969 -550.319375 179.83917969 -549.625 180.6953125 C-548.00608271 182.27962502 -548.00608271 182.27962502 -545.375 181.95703125 C-540.94905371 180.70198861 -537.07941324 178.79160573 -533 176.6875 C-532.12480713 176.2430957 -531.24961426 175.79869141 -530.34790039 175.34082031 C-523.06629257 171.61501583 -515.8896123 167.70401489 -508.72680664 163.75585938 C-500.10282251 159.01549873 -491.37516857 154.48467935 -482.62475586 149.98339844 C-480.49237725 148.88546336 -478.36442422 147.77888614 -476.24121094 146.66333008 C-473.97754122 145.50165625 -471.68602374 144.39337919 -469.37597656 143.3269043 C-463.24666332 140.63143168 -463.24666332 140.63143168 -458.74487305 135.95141602 C-458.15647158 133.72057382 -457.94053416 131.74143544 -457.875 129.4375 C-457.75620702 127.97712108 -457.62874716 126.51741856 -457.4921875 125.05859375 C-457.43184326 124.36677002 -457.37149902 123.67494629 -457.30932617 122.9621582 C-456.3798808 117.06637886 -452.35900628 111.88776235 -448 108 C-439.91134715 103.02924809 -432.15697397 100.56860521 -422.6953125 102.4609375 C-413.84995314 105.06251378 -407.80916536 110.02126303 -403.1796875 117.9609375 C-401.99334055 121.0171558 -401.71460866 123.654778 -401.49243164 126.90551758 C-400.94872451 133.33362523 -400.94872451 133.33362523 -397.39013672 138.48583984 C-392.82231209 141.48954079 -387.7853055 143.56021862 -382.78271484 145.7265625 C-378.03303926 147.90012872 -373.5734194 150.56265053 -369.0625 153.1875 C-360.21681323 158.23958357 -351.29173279 163.12842479 -342.3125 167.9375 C-341.16724854 168.55197998 -340.02199707 169.16645996 -338.84204102 169.79956055 C-335.56852167 171.5470103 -332.28600091 173.27615546 -329 175 C-327.35523682 175.87809326 -327.35523682 175.87809326 -325.67724609 176.77392578 C-324.09484131 177.59932861 -324.09484131 177.59932861 -322.48046875 178.44140625 C-321.54485107 178.93455322 -320.6092334 179.4277002 -319.64526367 179.93579102 C-316.83365334 181.06692248 -314.99812161 181.30869548 -312 181 C-309.54641483 179.78549726 -309.54641483 179.78549726 -307.1875 178.125 C-300.38811195 173.87663789 -294.74616618 172.29492768 -286.72265625 173.32421875 C-279.3080784 175.16456591 -272.80168268 179.12827739 -267 184 C-254.54826694 177.62729699 -242.40613206 170.8305893 -230.35546875 163.73046875 C-225.95844253 161.14030795 -221.54414701 158.58251041 -217.11328125 156.05078125 C-216.25125343 155.55735985 -216.25125343 155.55735985 -215.37181091 155.05397034 C-212.61030213 153.47336752 -209.84695155 151.89620754 -207.07983398 150.32543945 C-194.83430432 143.62803614 -194.83430432 143.62803614 -184 135 C-183.52895337 133.15889701 -183.12132704 131.3012761 -182.75 129.4375 C-180.59894881 120.45686129 -175.86959374 113.04171098 -168 108 C-160.99790206 104.49230767 -153.07066489 103.70486113 -145.4765625 105.64453125 C-143.99572666 106.14388287 -142.5245198 106.67381065 -141.0703125 107.24609375 C-137.62496479 108.50820426 -137.62496479 108.50820426 -134 109 C-131.2010528 107.26671337 -131.2010528 107.26671337 -128.5 104.6875 C-127.4369139 103.75031003 -126.37174079 102.81548306 -125.3046875 101.8828125 C-124.7590918 101.40102539 -124.21349609 100.91923828 -123.65136719 100.42285156 C-121.0605686 98.19056679 -118.35059819 96.12630353 -115.625 94.0625 C-114.53221653 93.22960674 -113.43977252 92.39626792 -112.34765625 91.5625 C-111.79867676 91.14355469 -111.24969727 90.72460938 -110.68408203 90.29296875 C-107.79207173 88.07260248 -104.92710487 85.81804728 -102.0625 83.5625 C-101.48129395 83.10496338 -100.90008789 82.64742676 -100.30126953 82.17602539 C-99.12274369 81.24789964 -97.94435851 80.31959524 -96.76611328 79.39111328 C-93.84628952 77.09125763 -90.92298107 74.79584055 -88 72.5 C-86.83331639 71.5833549 -85.66664973 70.66668823 -84.5 69.75 C-82.16666667 67.91666667 -79.83333333 66.08333333 -77.5 64.25 C-76.92209717 63.79592773 -76.34419434 63.34185547 -75.7487793 62.87402344 C-74.58620425 61.96058321 -73.42360672 61.04717158 -72.26098633 60.13378906 C-69.28152964 57.79299623 -66.30250713 55.45165419 -63.32421875 53.109375 C-62.71980957 52.63540283 -62.11540039 52.16143066 -61.49267578 51.6730957 C-60.29979396 50.73269698 -59.11184316 49.78600556 -57.92919922 48.83276367 C-55.38189412 46.79091096 -52.94781025 44.96947926 -50.12109375 43.31640625 C-47.44487548 41.70397427 -45.76875916 40.58652313 -44 38 C-43.46800146 33.87151545 -43.54517532 30.02406639 -43.796875 25.8828125 C-44.22570079 17.68564252 -42.05541504 11.43929961 -37 5 C-26.88663361 -5.59495527 -12.57183463 -6.42158459 0 0 Z " fill="#6A8DC3" transform="translate(633,100)"/>
<path d="M0 0 C22.11 0 44.22 0 67 0 C67.07577482 44.02517283 66.81062139 88.04719628 66.55461788 132.0714407 C66.49305888 142.66717513 66.43310185 153.26291846 66.37324238 163.85866261 C66.25053875 185.57245178 66.12572961 207.28622812 66 229 C44.55 229 23.1 229 1 229 C0.82725662 210.89587651 0.65825224 192.79175104 0.5 174.6875 C0.49405146 174.00824872 0.48810292 173.32899744 0.48197412 172.62916279 C0.11260262 130.37712949 -0.0935092 88.12891164 -0.0625 45.875 C-0.06164398 44.69994778 -0.06078796 43.52489555 -0.05990601 42.31423569 C-0.04883856 28.20946453 -0.02593846 14.10475996 0 0 Z " fill="#6A8DC3" transform="translate(170,358)"/>
<path d="M0 0 C22.11 0 44.22 0 67 0 C67.02816867 14.79168396 67.05138501 29.58330237 67.0625 44.375 C67.06335602 45.50579987 67.06421204 46.63659973 67.06509399 47.80166626 C67.09253556 89.03683178 66.86040864 130.26674649 66.5 171.5 C66.49402628 172.18467315 66.48805257 172.86934629 66.48189783 173.57476711 C66.32927082 191.04992412 66.16597731 208.52496056 66 226 C44.55 226 23.1 226 1 226 C0.86808427 203.76833984 0.73740948 181.53667342 0.60884857 159.30499363 C0.54908303 148.97635501 0.48880694 138.64771989 0.42724609 128.3190918 C0.1725589 85.54546057 -0.07118715 42.77457833 0 0 Z " fill="#6A8DC3" transform="translate(446,361)"/>
<path d="M0 0 C21.45 0 42.9 0 65 0 C65 51.81 65 103.62 65 157 C43.55 157 22.1 157 0 157 C0 105.19 0 53.38 0 0 Z " fill="#6A8DC3" transform="translate(309,430)"/>
<path d="M0 0 C21.45 0 42.9 0 65 0 C65 51.81 65 103.62 65 157 C43.55 157 22.1 157 0 157 C0 105.19 0 53.38 0 0 Z " fill="#6A8DC3" transform="translate(33,430)"/>
</svg>
