<?xml version="1.0" encoding="UTF-8"?>
<svg version="1.1" xmlns="http://www.w3.org/2000/svg" width="683" height="683">
<path d="M0 0 C204.6 0 409.2 0 620 0 C620.66080122 7.26881343 621.14480489 14.24094946 621.12698364 21.49659729 C621.12854363 22.4928045 621.13010362 23.48901172 621.13171089 24.51540703 C621.1356685 27.82091509 621.1325518 31.12637644 621.12939453 34.43188477 C621.13075082 36.81446866 621.13253203 39.19705234 621.13470459 41.57963562 C621.1392496 48.0251992 621.13750203 54.4707467 621.1343255 60.91631055 C621.13254413 64.94214708 621.13288429 68.96798157 621.13381577 72.99381828 C621.13404561 73.99817266 621.13404561 73.99817266 621.13428011 75.02281703 C621.13459984 76.38318269 621.13492406 77.74354835 621.1352527 79.10391401 C621.13809798 91.83134651 621.13483439 104.55877177 621.12945233 117.28620308 C621.12497592 128.2107438 621.12576894 139.13527391 621.13037109 150.05981445 C621.13571778 162.75761859 621.13783309 175.45541644 621.13475883 188.15322155 C621.13444028 189.50565557 621.13412591 190.85808959 621.13381577 192.21052361 C621.13366149 192.875912 621.13350721 193.5413004 621.13334826 194.22685208 C621.13248408 198.92035107 621.13394368 203.61384606 621.13629532 208.30734444 C621.13917372 214.61352458 621.13719893 220.91968455 621.13140106 227.2258625 C621.13007381 229.54550137 621.130467 231.86514192 621.13266373 234.18478012 C621.13537626 237.33862852 621.13199294 240.49241133 621.12698364 243.64625549 C621.12921436 244.57453598 621.13144509 245.50281647 621.13374341 246.45922667 C621.11415078 252.77169843 621.11415078 252.77169843 620 255 C616.37753146 253.69150376 613.15161776 251.98605962 609.83837891 250.03027344 C577.25917098 230.86031424 538.93340374 223.28959149 501.76953125 232.1875 C472.33184219 239.84119117 443.21406173 255.9629754 424 280 C423.17757813 281.02351563 422.35515625 282.04703125 421.5078125 283.1015625 C409.69499685 298.25698636 400.92446162 315.41858134 396 334 C395.80325684 334.72848145 395.60651367 335.45696289 395.40380859 336.20751953 C392.45360808 347.57834289 391.54694006 358.99496454 390.890625 370.6796875 C390.80274854 372.1718233 390.71437305 373.66392979 390.62548828 375.15600586 C390.4112485 378.77035155 390.20372801 382.38504474 390 386 C347.79134934 386.02297269 305.58269941 386.04055196 263.37404371 386.05106533 C258.37200244 386.05231579 253.36996118 386.05361013 248.36791992 386.05493164 C246.87442137 386.05532511 246.87442137 386.05532511 245.35075114 386.05572652 C229.30507575 386.06005805 213.25940401 386.06793152 197.21373077 386.0771528 C180.70521083 386.08655976 164.19669277 386.0920704 147.68817025 386.09408849 C137.53111174 386.09544922 127.37406354 386.09971993 117.21700821 386.10791647 C110.21783716 386.11327116 103.2186713 386.11478487 96.21949836 386.11350138 C92.20310189 386.11287136 88.18672321 386.11371869 84.17033005 386.11920547 C75.56385773 386.13004725 66.95866905 386.10723579 58.35249877 386.03239369 C55.32227357 386.00688335 52.29236305 385.99587452 49.2620337 385.99308848 C45.25971288 385.98763696 41.25868229 385.95072957 37.2567775 385.89367103 C35.74359545 385.87677685 34.23026376 385.86976307 32.71699246 385.87367625 C22.38503832 385.8909368 14.6587086 384.59091447 7.070113 377.093234 C-2.06540837 367.09588769 -0.14863851 353.81287259 -0.12025452 341.04180908 C-0.12069291 339.56656882 -0.12157159 338.09132864 -0.12284851 336.61608887 C-0.12507614 332.585905 -0.12109911 328.55574804 -0.11607273 324.52556759 C-0.11168586 320.10387154 -0.11316867 315.68217661 -0.11389065 311.26047897 C-0.11442093 302.68887402 -0.10981702 294.1172796 -0.10338932 285.54567735 C-0.09617328 275.62468882 -0.09539369 265.70370657 -0.09460449 255.78271484 C-0.08935979 229.60514157 -0.07539862 203.42757062 -0.0625 177.25 C-0.041875 118.7575 -0.02125 60.265 0 0 Z M173.59130859 53.87084961 C171.20659622 58.56014978 171.46690841 62.87760727 171.5390625 68.06640625 C171.53997894 69.13745102 171.54089539 70.20849579 171.5418396 71.31199646 C171.54787227 73.57221926 171.5636081 75.83243419 171.58837891 78.0925293 C171.62490525 81.55352195 171.629398 85.01344401 171.62890625 88.47460938 C171.63873701 90.67188426 171.65039383 92.86915189 171.6640625 95.06640625 C171.66628815 96.10189102 171.66851379 97.13737579 171.67080688 98.20423889 C171.68356659 99.16881516 171.69632629 100.13339142 171.70947266 101.12719727 C171.71709625 101.97371353 171.72471985 102.8202298 171.73257446 103.69239807 C172.03296155 106.28442358 172.50604541 107.85653283 174 110 C179.52205893 112.45352301 186.11675093 112.2855412 192.05859375 112.23046875 C192.88778824 112.23001053 193.71698273 112.22955231 194.57130432 112.2290802 C196.31162969 112.22608153 198.05195296 112.21826772 199.79223633 112.20581055 C202.42734507 112.18757029 205.06210029 112.18530131 207.69726562 112.18554688 C219.89961227 112.2777844 219.89961227 112.2777844 232 111 C237.30117101 103.04824348 235.09724731 87.97606026 235.125 78.6875 C235.12967285 77.60331787 235.1343457 76.51913574 235.13916016 75.40209961 C235.12890806 70.2291285 235.03249325 65.05976664 234.7421875 59.89453125 C234.69690918 59.0228833 234.65163086 58.15123535 234.60498047 57.25317383 C234.15729716 54.9157747 234.15729716 54.9157747 232.45361328 53.2565918 C226.610415 50.2640603 219.3659964 50.85070205 212.93359375 50.8671875 C212.09586929 50.86623077 211.25814484 50.86527405 210.39503479 50.86428833 C208.63615849 50.86361216 206.87727961 50.86542688 205.1184082 50.86962891 C202.44151157 50.87499196 199.76478217 50.86966123 197.08789062 50.86328125 C195.3697913 50.863942 193.65169208 50.8652231 191.93359375 50.8671875 C190.74581581 50.86415115 190.74581581 50.86415115 189.53404236 50.86105347 C181.06487091 50.586225 181.06487091 50.586225 173.59130859 53.87084961 Z M281 53 C276.18574279 60.22138582 277.84344695 71.03724416 277.86962891 79.44970703 C277.87499082 81.49649459 277.86965141 83.5430628 277.86328125 85.58984375 C277.25892587 97.71035016 277.25892587 97.71035016 280.10498047 109.20507812 C284.3966562 113.27006138 291.96204748 112.14784273 297.609375 112.1328125 C298.41683167 112.13376923 299.22428833 112.13472595 300.05621338 112.13571167 C301.75720295 112.13638883 303.45819516 112.13456707 305.15917969 112.13037109 C307.72857649 112.12504441 310.29779626 112.13031743 312.8671875 112.13671875 C319.74948172 112.14189391 326.64284971 112.12903562 333.515625 111.7421875 C334.32805664 111.69690918 335.14048828 111.65163086 335.97753906 111.60498047 C338.79168328 110.7631831 339.47829593 109.47664838 341 107 C341.44332962 104.61209521 341.44332962 104.61209521 341.37231445 102.01953125 C341.37854324 101.03170654 341.38477203 100.04388184 341.39118958 99.02612305 C341.38197983 97.96562744 341.37277008 96.90513184 341.36328125 95.8125 C341.36377975 94.71784424 341.36427826 93.62318848 341.36479187 92.49536133 C341.36245248 90.18211043 341.35273199 87.86885694 341.33618164 85.55566406 C341.31258952 82.0134405 341.315622 78.47196967 341.32226562 74.9296875 C341.31668878 72.68228718 341.30957885 70.43489002 341.30078125 68.1875 C341.30169266 67.12700439 341.30260406 66.06650879 341.30354309 64.97387695 C341.28924507 63.49213989 341.28924507 63.49213989 341.2746582 61.98046875 C341.27005081 61.11317139 341.26544342 60.24587402 341.26069641 59.35229492 C340.97659818 56.78884257 340.37450639 55.17276627 339 53 C333.13187906 50.06593953 325.05011428 50.84090708 318.6171875 50.83203125 C317.75868195 50.82870285 316.90017639 50.82537445 316.01565552 50.82194519 C314.21568329 50.81692008 312.41570189 50.81453548 310.61572266 50.81469727 C307.87516993 50.81250014 305.1350136 50.79426852 302.39453125 50.77539062 C300.63541803 50.7724578 298.87630292 50.77047226 297.1171875 50.76953125 C296.30659882 50.76234573 295.49601013 50.75516022 294.66085815 50.74775696 C289.73986331 50.76738748 285.61657681 51.22737322 281 53 Z M386 55 C384.77704449 60.06139354 384.83885573 65.13331966 384.83203125 70.30859375 C384.82870285 71.19354019 384.82537445 72.07848663 384.82194519 72.99024963 C384.81690007 74.85522952 384.81453612 76.72021837 384.81469727 78.58520508 C384.81250979 81.42479419 384.79432568 84.26399507 384.77539062 87.10351562 C384.77245632 88.92187368 384.77047177 90.74023357 384.76953125 92.55859375 C384.76234573 93.40046738 384.75516022 94.242341 384.74775696 95.10972595 C384.76531998 103.77918165 384.76531998 103.77918165 389 111 C394.14160502 112.02265309 399.17425346 112.14710685 404.390625 112.1328125 C405.56851593 112.13424759 405.56851593 112.13424759 406.77020264 112.13571167 C408.42411378 112.13638868 410.07802764 112.13456801 411.73193359 112.13037109 C414.2289038 112.125045 416.72569177 112.13031754 419.22265625 112.13671875 C433.75267807 113.02964501 433.75267807 113.02964501 447 109 C448.06701219 106.11877189 448.1309209 103.36231465 448.14526367 100.31079102 C448.15164352 99.38625626 448.15802338 98.4617215 448.16459656 97.50917053 C448.16570938 96.51743332 448.1668222 95.52569611 448.16796875 94.50390625 C448.17129715 93.4782103 448.17462555 92.45251434 448.17805481 91.39573669 C448.1831141 89.22794035 448.18546344 87.06013623 448.18530273 84.89233398 C448.18748945 81.57848272 448.20565654 78.26496427 448.22460938 74.95117188 C448.22754346 72.84375114 448.22952815 70.73632882 448.23046875 68.62890625 C448.23765427 67.63919327 448.24483978 66.64948029 448.25224304 65.629776 C448.30418519 59.0620019 448.30418519 59.0620019 446 53 C440.06292191 50.03146096 431.86664766 50.84073438 425.36328125 50.83203125 C424.48020798 50.82870285 423.5971347 50.82537445 422.68730164 50.82194519 C420.83605464 50.81691916 418.98479873 50.81453551 417.13354492 50.81469727 C414.30958261 50.81249773 411.48600349 50.7942607 408.66210938 50.77539062 C406.85416799 50.77245834 405.04622477 50.77047244 403.23828125 50.76953125 C402.4006575 50.76234573 401.56303375 50.75516022 400.70002747 50.74775696 C395.19184675 50.76917184 390.10501939 50.89498061 386 55 Z M494 53 C492.26671349 56.35789059 491.74840226 59.16128796 491.74121094 62.91040039 C491.73490662 63.85810806 491.72860229 64.80581573 491.72210693 65.78224182 C491.7261554 66.79382858 491.73020386 67.80541534 491.734375 68.84765625 C491.73246155 69.89650497 491.7305481 70.9453537 491.72857666 72.02598572 C491.72721793 74.23908733 491.73089258 76.45219699 491.73925781 78.6652832 C491.74997227 82.05372992 491.73934625 85.44164775 491.7265625 88.83007812 C491.72788394 90.981772 491.73044601 93.13346555 491.734375 95.28515625 C491.73032654 96.29876724 491.72627808 97.31237823 491.72210693 98.35670471 C491.72841125 99.30126022 491.73471558 100.24581573 491.74121094 101.21899414 C491.74280212 102.04774551 491.74439331 102.87649689 491.74603271 103.73036194 C492.02921701 106.26110467 492.61827487 107.86636426 494 110 C509.26543635 115.21979436 537.85749316 115.04750228 553 110 C555.30394962 104.40839248 555.28683085 98.04846682 555.23046875 92.08984375 C555.23001053 91.27810196 555.22955231 90.46636017 555.2290802 89.63002014 C555.22608293 87.92838055 555.21827349 86.22674307 555.20581055 84.52514648 C555.18752117 81.94049206 555.18530162 79.35619692 555.18554688 76.77148438 C555.18063119 75.10676778 555.17480264 73.44205358 555.16796875 71.77734375 C555.16685593 71.01566391 555.1657431 70.25398407 555.16459656 69.46922302 C555.48625974 60.9335762 555.48625974 60.9335762 552.71315002 53.31488037 C550.66691863 51.74435271 549.46762042 51.52519033 546.91259766 51.32299805 C545.71488739 51.22660538 545.71488739 51.22660538 544.49298096 51.12826538 C540.45920797 50.92072532 536.43732109 50.83745676 532.3984375 50.83203125 C531.5177359 50.82870285 530.6370343 50.82537445 529.72964478 50.82194519 C527.88259396 50.81691874 526.03553421 50.81453553 524.18847656 50.81469727 C521.3754994 50.81250039 518.56290857 50.79427085 515.75 50.77539062 C513.94531383 50.77245779 512.14062581 50.77047226 510.3359375 50.76953125 C509.50347504 50.76234573 508.67101257 50.75516022 507.81332397 50.74775696 C502.85454583 50.76703769 498.59534645 51.03873358 494 53 Z M66 159 C65.30788372 161.16826203 65.30788372 161.16826203 65.26269531 163.59277344 C65.20746704 164.48250854 65.15223877 165.37224365 65.09533691 166.28894043 C65.06387573 167.18359009 65.03241455 168.07823975 65 169 C64.96886108 169.78991333 64.93772217 170.57982666 64.90563965 171.39367676 C64.83724084 173.7683783 64.80942434 176.13999272 64.796875 178.515625 C64.79117493 179.37508728 64.78547485 180.23454956 64.77960205 181.12005615 C64.77024012 182.91824137 64.76365364 184.71644306 64.75976562 186.51464844 C64.74997337 189.25746019 64.71883326 191.99954804 64.6875 194.7421875 C64.68097611 196.49999561 64.67572324 198.257809 64.671875 200.015625 C64.6595282 200.82823792 64.6471814 201.64085083 64.63446045 202.47808838 C64.65433013 207.56352579 65.18201291 212.18201291 69 216 C70.34845261 216.09796526 71.70194929 216.12798108 73.05395508 216.12939453 C73.91608109 216.13254669 74.77820709 216.13569885 75.66645813 216.13894653 C76.60797226 216.1369223 77.54948639 216.13489807 78.51953125 216.1328125 C79.48847824 216.13376923 80.45742523 216.13472595 81.45573425 216.13571167 C83.51793482 216.13639431 85.58013751 216.13453424 87.64233398 216.13037109 C90.760956 216.12508733 93.87942976 216.13027993 96.99804688 216.13671875 C111.54432636 216.34819773 111.54432636 216.34819773 126 215 C129.48018013 211.51981987 128.16219443 201.71648201 128.16796875 197.12109375 C128.17129715 196.19079849 128.17462555 195.26050323 128.17805481 194.30201721 C128.18309518 192.34466035 128.18546403 190.38729498 128.18530273 188.42993164 C128.18749568 185.44337853 128.20569978 182.45719135 128.22460938 179.47070312 C128.22754265 177.56250125 128.22952789 175.65429764 128.23046875 173.74609375 C128.23765427 172.85844833 128.24483978 171.97080292 128.25224304 171.05625916 C128.23158406 165.43028754 128.20158818 160.20158818 124 156 C116.20784782 154.23140385 107.71030956 154.84642054 99.75073242 154.86962891 C97.57007875 154.8749814 95.38963176 154.86965813 93.20898438 154.86328125 C78.65140957 153.83018733 78.65140957 153.83018733 66 159 Z M182.01171875 155.05566406 C178.57265122 155.2568861 176.46470217 155.60614256 173.80444336 157.86083984 C171.12787425 162.51722269 171.4463138 166.74916227 171.50390625 172.03125 C171.50245102 173.0999231 171.50099579 174.16859619 171.49949646 175.26965332 C171.50115402 177.52566254 171.51269916 179.78168324 171.53344727 182.03759766 C171.56239758 185.48779407 171.55405313 188.93645313 171.54101562 192.38671875 C171.54725341 194.58073662 171.55564466 196.77474965 171.56640625 198.96875 C171.56347061 199.99907349 171.56053497 201.02939697 171.55751038 202.09094238 C171.46876595 209.17549214 171.46876595 209.17549214 175 215 C180.1620391 216.3238677 185.51954432 216.14654618 190.828125 216.1328125 C192.07260406 216.13424759 192.07260406 216.13424759 193.34222412 216.13571167 C195.09029212 216.13638898 196.83836269 216.13456619 198.58642578 216.13037109 C201.22824928 216.12504386 203.86990066 216.13031733 206.51171875 216.13671875 C219.33375829 216.4501321 219.33375829 216.4501321 232 215 C237.72071105 209.27928895 235.10380291 192.55743131 235.125 184.875 C235.12967285 183.69631348 235.1343457 182.51762695 235.13916016 181.30322266 C235.12888282 175.63883131 235.03313438 169.97761285 234.7421875 164.3203125 C234.69690918 163.36656738 234.65163086 162.41282227 234.60498047 161.43017578 C234.19479059 158.87985438 234.19479059 158.87985438 232.18017578 157.20996094 C224.80930982 153.11925414 213.70197872 154.84791652 205.43457031 154.86962891 C203.00579587 154.87498721 200.57720631 154.86965983 198.1484375 154.86328125 C192.7675148 154.85844875 187.39164582 154.95544973 182.01171875 155.05566406 Z M280.5 157.5625 C276.38151523 164.25503775 277.84692524 174.05231653 277.86962891 181.67114258 C277.8749614 183.7971112 277.86967364 185.92286615 277.86328125 188.04882812 C277.14094754 201.03071683 277.14094754 201.03071683 280.16748047 213.23364258 C284.47127205 217.38204813 292.0626178 216.14573889 297.7109375 216.1328125 C299.10138779 216.13424759 299.10138779 216.13424759 300.51992798 216.13571167 C302.47487455 216.13639011 304.42982342 216.13455934 306.38476562 216.13037109 C309.35812512 216.12503031 312.33133274 216.13032126 315.3046875 216.13671875 C317.21093783 216.13605767 319.11718807 216.13477589 321.0234375 216.1328125 C322.34412735 216.13584885 322.34412735 216.13584885 323.6914978 216.13894653 C328.87342689 216.11952229 333.91957944 216.07616216 339 215 C341.04168583 212.05447872 341.25232518 209.54275378 341.25878906 206.01953125 C341.26509338 205.03170654 341.27139771 204.04388184 341.27789307 203.02612305 C341.2738446 201.96562744 341.26979614 200.90513184 341.265625 199.8125 C341.26753845 198.71784424 341.2694519 197.62318848 341.27142334 196.49536133 C341.27278368 194.18212657 341.2690978 191.86888413 341.26074219 189.55566406 C341.25004078 186.01349755 341.26064285 182.47183822 341.2734375 178.9296875 C341.27211588 176.68229055 341.26955343 174.43489391 341.265625 172.1875 C341.26967346 171.12700439 341.27372192 170.06650879 341.27789307 168.97387695 C341.27158875 167.98605225 341.26528442 166.99822754 341.25878906 165.98046875 C341.25719788 165.11317139 341.25560669 164.24587402 341.25396729 163.35229492 C340.9767919 160.78504203 340.37691404 159.17462529 339 157 C331.33802297 153.16901148 320.20767347 154.84671381 311.78637695 154.86962891 C309.4388994 154.8749968 307.09161244 154.86965159 304.74414062 154.86328125 C292.1201357 154.14024165 292.1201357 154.14024165 280.5 157.5625 Z M387.5 157.875 C385.26472813 161.04163516 384.87329077 163.60545394 384.85473633 167.3762207 C384.84835648 168.2575618 384.84197662 169.13890289 384.83540344 170.04695129 C384.83429062 170.99696518 384.8331778 171.94697906 384.83203125 172.92578125 C384.82870285 173.90612839 384.82537445 174.88647552 384.82194519 175.89653015 C384.81688075 177.97194957 384.81453672 180.04737714 384.81469727 182.12280273 C384.81251571 185.28968845 384.7943684 188.45622303 384.77539062 191.62304688 C384.77245558 193.64062381 384.77047153 195.6582024 384.76953125 197.67578125 C384.76234573 198.61972244 384.75516022 199.56366364 384.74775696 200.53620911 C384.76450055 205.38409457 384.93573722 209.50708601 387 214 C394.7380387 217.86901935 406.89942745 216.18612304 415.44042969 216.18530273 C417.99430881 216.18749511 420.54775907 216.2057232 423.1015625 216.22460938 C431.33275266 216.25198651 438.97496156 216.08026099 447 214 C447.99726271 208.18752517 448.16093901 202.53910185 448.16796875 196.6484375 C448.17129715 195.67137848 448.17462555 194.69431946 448.17805481 193.68765259 C448.18309649 191.63194243 448.18546399 189.57622415 448.18530273 187.52050781 C448.18749782 184.37811916 448.20570631 181.23607706 448.22460938 178.09375 C448.22754216 176.09114703 448.22952772 174.0885424 448.23046875 172.0859375 C448.23765427 171.14938324 448.24483978 170.21282898 448.25224304 169.24789429 C448.26065784 162.88306667 448.26065784 162.88306667 446 157 C438.33802297 153.16901148 427.20767347 154.84671381 418.78637695 154.86962891 C416.4388994 154.8749968 414.09161244 154.86965159 411.74414062 154.86328125 C398.95891723 154.03751542 398.95891723 154.03751542 387.5 157.875 Z M502.01611328 155.05566406 C498.57680863 155.25685881 496.46485596 155.60691453 493.80200195 157.85864258 C491.12348431 162.52799449 491.4654615 166.77355594 491.5390625 172.06640625 C491.53997894 173.13745102 491.54089539 174.20849579 491.5418396 175.31199646 C491.54787227 177.57221926 491.5636081 179.83243419 491.58837891 182.0925293 C491.62490525 185.55352195 491.629398 189.01344401 491.62890625 192.47460938 C491.63873701 194.67188426 491.65039383 196.86915189 491.6640625 199.06640625 C491.66628815 200.10189102 491.66851379 201.13737579 491.67080688 202.20423889 C491.68356659 203.16881516 491.69632629 204.13339142 491.70947266 205.12719727 C491.71709625 205.97371353 491.72471985 206.8202298 491.73257446 207.69239807 C492.02919014 210.25188026 492.57403375 211.85624989 494 214 C502.73324307 216.91108102 512.67492092 216.18637205 521.78759766 216.18530273 C523.86511744 216.1874896 525.94210465 216.20572368 528.01953125 216.22460938 C536.51764642 216.25900093 544.64463488 215.58130168 553 214 C554.5708567 207.94370854 555.28956619 202.3376481 555.23046875 196.08984375 C555.23001053 195.27810196 555.22955231 194.46636017 555.2290802 193.63002014 C555.22608293 191.92838055 555.21827349 190.22674307 555.20581055 188.52514648 C555.18752117 185.94049206 555.18530162 183.35619692 555.18554688 180.77148438 C555.18063119 179.10676778 555.17480264 177.44205358 555.16796875 175.77734375 C555.16685593 175.01566391 555.1657431 174.25398407 555.16459656 173.46922302 C555.41313832 164.86431016 555.41313832 164.86431016 552.69116211 157.04248047 C545.80647042 152.79856052 533.2738422 154.84873516 525.35913086 154.86962891 C522.93922687 154.87499617 520.51950779 154.86965263 518.09960938 154.86328125 C512.73641764 154.85845147 507.37830813 154.95563294 502.01611328 155.05566406 Z M75.27734375 259.2578125 C73.88696899 259.32572998 73.88696899 259.32572998 72.46850586 259.39501953 C69.0896866 260.22309926 67.98196489 261.12186415 66 264 C65.28902918 266.98812219 65.11936036 269.93686318 65 273 C64.96886108 273.75912689 64.93772217 274.51825378 64.90563965 275.30038452 C64.83668075 277.67363583 64.80933684 280.04376655 64.796875 282.41796875 C64.79117493 283.27884598 64.78547485 284.13972321 64.77960205 285.02668762 C64.77022813 286.83084917 64.76364872 288.63502726 64.75976562 290.43920898 C64.74998795 293.19089182 64.71886462 295.94184884 64.6875 298.69335938 C64.68097498 300.45572478 64.67572255 302.21809546 64.671875 303.98046875 C64.6595282 304.79621872 64.6471814 305.61196869 64.63446045 306.45243835 C64.65428413 311.54742299 65.17402235 316.17402235 69 320 C70.42036071 320.09816906 71.84553864 320.12798315 73.26928711 320.12939453 C74.17791 320.13254669 75.0865329 320.13569885 76.02268982 320.13894653 C77.01422562 320.1369223 78.00576141 320.13489807 79.02734375 320.1328125 C80.04542618 320.13376923 81.06350861 320.13472595 82.11244202 320.13571167 C84.27719179 320.13639418 86.44194358 320.13453499 88.60668945 320.13037109 C91.89213798 320.12507315 95.17744667 320.13028786 98.46289062 320.13671875 C100.56770863 320.13605701 102.67252655 320.13477388 104.77734375 320.1328125 C106.23732033 320.13584885 106.23732033 320.13584885 107.72679138 320.13894653 C117.98375173 320.8489731 117.98375173 320.8489731 127 318 C128.0561582 312.36513207 128.16078004 306.84210681 128.16796875 301.12109375 C128.17129715 300.19079849 128.17462555 299.26050323 128.17805481 298.30201721 C128.18309518 296.34466035 128.18546403 294.38729498 128.18530273 292.42993164 C128.18749568 289.44337853 128.20569978 286.45719135 128.22460938 283.47070312 C128.22754265 281.56250125 128.22952789 279.65429764 128.23046875 277.74609375 C128.23765427 276.85844833 128.24483978 275.97080292 128.25224304 275.05625916 C128.23158406 269.43028754 128.20158818 264.20158818 124 260 C116.0758967 258.42326037 107.62378765 258.84430286 99.5847168 258.86962891 C97.56877087 258.87498334 95.55304855 258.86965227 93.53710938 258.86328125 C87.44736644 258.86927214 81.35955436 258.94221304 75.27734375 259.2578125 Z M182.08300781 259.05566406 C178.62621169 259.25784069 176.4771618 259.59639028 173.80004883 261.86083984 C171.12965878 266.51781465 171.44633735 270.75132225 171.50390625 276.03125 C171.50245102 277.0999231 171.50099579 278.16859619 171.49949646 279.26965332 C171.50115402 281.52566254 171.51269916 283.78168324 171.53344727 286.03759766 C171.56239758 289.48779407 171.55405313 292.93645313 171.54101562 296.38671875 C171.54725341 298.58073662 171.55564466 300.77474965 171.56640625 302.96875 C171.56347061 303.99907349 171.56053497 305.02939697 171.55751038 306.09094238 C171.49166157 313.15065211 171.49166157 313.15065211 175 319 C179.92399255 320.52511814 185.33015204 320.14488698 190.45703125 320.1328125 C191.35943039 320.13376923 192.26182953 320.13472595 193.1915741 320.13571167 C195.09524607 320.13639007 196.9989204 320.13455958 198.90258789 320.13037109 C201.79253435 320.12503685 204.68232408 320.13031799 207.57226562 320.13671875 C209.42968784 320.13605754 211.28710996 320.1347755 213.14453125 320.1328125 C214.4246685 320.13584885 214.4246685 320.13584885 215.73066711 320.13894653 C225.60864727 320.68967807 225.60864727 320.68967807 234 317 C235.66520579 307.85707766 235.09955487 298.06846806 235.125 288.8125 C235.12967285 287.62543457 235.1343457 286.43836914 235.13916016 285.21533203 C235.66135199 272.94368079 235.66135199 272.94368079 232.625 261.375 C224.59308072 257.16780419 213.06227252 258.84443604 204.13818359 258.86962891 C201.87200281 258.87500711 199.6060187 258.86964279 197.33984375 258.86328125 C192.25213356 258.85839982 187.16970654 258.95859616 182.08300781 259.05566406 Z M280.5 261.5625 C277.33280496 266.70919194 277.87238401 273.76524497 277.8671875 279.6484375 C277.86623077 280.34587067 277.86527405 281.04330383 277.86428833 281.76187134 C277.86361317 283.22568859 277.86542069 284.68950895 277.86962891 286.15332031 C277.87497027 288.36270057 277.86966956 290.57187607 277.86328125 292.78125 C276.82914805 306.86511006 276.82914805 306.86511006 282 319 C286.50367296 320.58707325 291.59577068 320.14392246 296.32421875 320.1328125 C297.22566116 320.13376923 298.12710358 320.13472595 299.05586243 320.13571167 C300.96131459 320.13639094 302.8667691 320.13455429 304.7722168 320.13037109 C307.66004775 320.12505058 310.54772094 320.13030848 313.43554688 320.13671875 C315.29427117 320.13605731 317.15299537 320.1347748 319.01171875 320.1328125 C319.86311935 320.13483673 320.71451996 320.13686096 321.59172058 320.13894653 C325.90368901 320.12245092 330.19774003 319.98675755 334.49926758 319.67919922 C335.31406082 319.62238983 336.12885406 319.56558044 336.96833801 319.50704956 C339.38945305 319.14487082 339.38945305 319.14487082 341 316 C341.3031096 313.66534477 341.3031096 313.66534477 341.25878906 311.04125977 C341.26509338 310.03333878 341.27139771 309.02541779 341.27789307 307.98695374 C341.2738446 306.89942307 341.26979614 305.8118924 341.265625 304.69140625 C341.26753845 303.5731395 341.2694519 302.45487274 341.27142334 301.30271912 C341.27278508 298.9364296 341.2690894 296.57013261 341.26074219 294.20385742 C341.25005279 290.58039557 341.26063293 286.95743066 341.2734375 283.33398438 C341.27211571 281.03645724 341.2695529 278.73893041 341.265625 276.44140625 C341.26967346 275.35589981 341.27372192 274.27039337 341.27789307 273.1519928 C341.27158875 272.14091965 341.26528442 271.1298465 341.25878906 270.08813477 C341.25719788 269.2000563 341.25560669 268.31197784 341.25396729 267.39698792 C340.97934316 264.80503708 340.3934354 263.19226192 339 261 C331.23484369 257.11742185 319.70880693 258.84543388 311.13818359 258.86962891 C308.87200281 258.87500711 306.6060187 258.86964279 304.33984375 258.86328125 C291.92295875 258.17083129 291.92295875 258.17083129 280.5 261.5625 Z " fill="#00ABDF" transform="translate(9,180)"/>
<path d="M0 0 C7.03216089 5.06315584 6.43716497 7.96690731 8.125 17.25 C8.125 26.16 8.125 35.07 8.125 44.25 C135.175 44.25 262.225 44.25 393.125 44.25 C393.125 33.36 393.125 22.47 393.125 11.25 C396.68013439 1.76964163 396.68013439 1.76964163 400.97265625 -0.8984375 C406.09899047 -2.92664233 411.39796626 -2.75167744 416.5390625 -0.86328125 C420.2989693 1.1944132 421.772173 2.29232672 423.30078125 6.44140625 C424.1472162 10.35265778 424.56749969 14.14040993 424.75 18.125 C424.82476563 19.44242188 424.89953125 20.75984375 424.9765625 22.1171875 C425.26143899 29.4887668 425.15361644 36.87437863 425.125 44.25 C426.3939209 44.24476318 427.6628418 44.23952637 428.97021484 44.23413086 C433.76757069 44.21575908 438.56492356 44.20445291 443.36230469 44.19506836 C445.42188035 44.19010051 447.48145261 44.18332394 449.54101562 44.17456055 C492.29267025 43.99747036 492.29267025 43.99747036 500.375 49.4375 C513.01399166 62.36374147 511.27922539 78.7538683 511.2578125 95.6796875 C511.25848707 97.56153374 511.25945838 99.44337989 511.26071167 101.32522583 C511.26217925 105.25035439 511.26006297 109.17546006 511.25537109 113.10058594 C511.24965067 118.13098388 511.25297332 123.16132874 511.25894356 128.19172478 C511.26255445 132.06928916 511.26140855 135.94684091 511.25881577 139.82440567 C511.25814918 141.67996349 511.25896554 143.53552247 511.26129532 145.39107895 C511.26383305 147.97803551 511.25996644 150.56490537 511.25439453 153.15185547 C511.25641876 153.91657669 511.25844299 154.68129791 511.26052856 155.4691925 C511.24653314 158.97447197 510.98266113 161.81935547 510.125 165.25 C305.525 165.25 100.925 165.25 -109.875 165.25 C-109.875 60.71728972 -109.875 60.71728972 -103.625 54 C-103.08359375 53.39671875 -102.5421875 52.7934375 -101.984375 52.171875 C-101.28828125 51.53765625 -100.5921875 50.9034375 -99.875 50.25 C-98.95847656 49.36441406 -98.04195312 48.47882812 -97.09765625 47.56640625 C-91.41935873 43.63665909 -84.19475485 44.46105532 -77.5625 44.4375 C-76.06979458 44.41470669 -74.57711701 44.39001762 -73.08447266 44.36352539 C-68.34800048 44.28904603 -63.61197435 44.26667236 -58.875 44.25 C-57.23616459 44.24168869 -55.59732994 44.23322476 -53.95849609 44.22460938 C-44.26363652 44.17896622 -34.56977649 44.19040472 -24.875 44.25 C-24.88547363 43.45416504 -24.89594727 42.65833008 -24.90673828 41.83837891 C-24.94866997 38.18395223 -24.97444352 34.52957643 -25 30.875 C-25.01675781 29.62332031 -25.03351563 28.37164063 -25.05078125 27.08203125 C-25.14681715 8.73917413 -25.14681715 8.73917413 -20.5625 2.75 C-14.83723145 -2.57583121 -7.02829911 -3.78217791 0 0 Z M-30.1875 81.125 C-36.20995974 87.29833556 -39.91699048 95.17043259 -40.1875 103.8125 C-40.0113934 113.80654929 -36.11453333 121.05858573 -29.234375 128.15234375 C-23.21373332 133.50513279 -15.68056608 136.15944524 -7.62109375 136.28515625 C2.06631742 135.59440171 9.47529383 131.14151367 16.125 124.25 C20.89062759 118.3251657 23.77262638 111.03765406 23.40625 103.34375 C22.15083916 93.99791377 18.30907968 86.06216148 11.3125 79.6875 C9.42197391 78.15847035 9.42197391 78.15847035 8.125 78.25 C8.08761719 79.51714844 8.05023438 80.78429687 8.01171875 82.08984375 C7.94600207 83.78908931 7.87955677 85.4883068 7.8125 87.1875 C7.78994141 88.01830078 7.76738281 88.84910156 7.74414062 89.70507812 C7.47959879 95.8857373 6.96558643 103.06091349 2.67431641 107.87866211 C-2.11130734 111.95028413 -5.23980085 112.55373332 -11.33203125 112.45703125 C-14.88702939 112.16760744 -17.02364955 111.40589912 -19.875 109.25 C-23.34151565 103.03417884 -23.60918497 96.82016811 -24.0625 89.8125 C-24.14435547 88.69939453 -24.22621094 87.58628906 -24.31054688 86.43945312 C-24.50967532 83.71022202 -24.69749916 80.98070859 -24.875 78.25 C-27.61376092 78.25 -28.23306426 79.24423479 -30.1875 81.125 Z M387.3125 81.75 C380.97814831 88.14111111 378.00034193 94.8059739 377.8125 103.8125 C377.89551841 112.76003977 380.10207241 120.04767413 386.30078125 126.65234375 C393.8307571 133.24711917 402.05338058 136.68717523 412.0625 136.1875 C420.15133285 135.11821416 427.40746594 130.96753406 433.125 125.25 C439.66961467 116.46308002 441.09002071 108.10953688 440.125 97.25 C438.44120127 90.46439195 434.23935525 84.92694329 429.125 80.25 C427.80342002 79.56032719 426.47122971 78.8902248 425.125 78.25 C425.07339722 79.38429443 425.07339722 79.38429443 425.02075195 80.54150391 C424.85037168 83.98767607 424.64429666 87.43082916 424.4375 90.875 C424.38400391 92.06480469 424.33050781 93.25460938 424.27539062 94.48046875 C423.63986378 104.37258226 423.63986378 104.37258226 420.72265625 108 C416.83538351 111.3670212 413.74323967 112.1028873 408.6875 112.5625 C404.540732 112.19874842 401.75973473 111.2770636 398.125 109.25 C395.42157551 105.58694615 394.6403112 102.56467495 394.17578125 98.07421875 C394.05009766 96.91728516 393.92441406 95.76035156 393.79492188 94.56835938 C393.67697266 93.37017578 393.55902344 92.17199219 393.4375 90.9375 C393.30794922 89.71998047 393.17839844 88.50246094 393.04492188 87.24804688 C392.72744524 84.24965644 392.42121374 81.25055313 392.125 78.25 C390.13671077 78.25 388.64496266 80.46450727 387.3125 81.75 Z " fill="#00ABDF" transform="translate(118.875,1.75)"/>
<path d="M0 0 C2.62801521 2.22122932 5.17613511 4.51508299 7.71704102 6.8359375 C8.5149707 7.55136719 9.31290039 8.26679688 10.13500977 9.00390625 C33.36148225 30.91489711 47.02545239 63.55356954 47.95532227 95.2578125 C48.53096074 133.24995163 38.09215662 164.97858399 11.71704102 192.8359375 C10.8855957 193.73183594 10.05415039 194.62773438 9.19750977 195.55078125 C-13.61618824 219.36654505 -45.32992613 232.49949031 -78.10498047 233.23852539 C-109.34040215 233.5161477 -138.60500629 225.58514513 -163.28295898 205.8359375 C-163.83870605 205.39233887 -164.39445312 204.94874023 -164.96704102 204.49169922 C-173.07605929 197.95888106 -180.02475888 191.21680197 -186.28295898 182.8359375 C-186.93393555 182.02253906 -187.58491211 181.20914063 -188.25561523 180.37109375 C-202.40246163 162.11800566 -212.33530268 138.9903406 -212.52124023 115.78515625 C-212.52931198 114.81294632 -212.53738373 113.84073639 -212.54570007 112.83906555 C-212.55950073 110.78066771 -212.57024076 108.72224737 -212.578125 106.66381836 C-212.58957267 104.58985533 -212.60990797 102.51592005 -212.63964844 100.44213867 C-212.8823815 83.48201348 -211.18551667 68.57216696 -204.65795898 52.7734375 C-204.32022461 51.94473145 -203.98249023 51.11602539 -203.63452148 50.26220703 C-198.42043835 37.94251875 -191.01873306 26.93559726 -182.28295898 16.8359375 C-181.61006836 16.03027344 -180.93717773 15.22460938 -180.24389648 14.39453125 C-170.81587994 3.44089021 -159.90591225 -5.14650743 -147.28295898 -12.1640625 C-146.38867188 -12.66848877 -146.38867188 -12.66848877 -145.47631836 -13.18310547 C-99.81334309 -38.6324443 -40.42682427 -33.06859805 0 0 Z M-163.28295898 36.8359375 C-180.58813638 57.55483153 -187.96507252 84.21864742 -186.28295898 110.8359375 C-183.51053737 139.14990124 -169.80754138 164.34231941 -148.28295898 182.8359375 C-130.08542719 197.25625188 -109.23793218 205.01664742 -86.07299805 205.07617188 C-83.81707655 205.08579201 -81.56210146 205.11682008 -79.30639648 205.1484375 C-53.45057929 205.34064236 -29.60453672 194.87790674 -11.21655273 176.8046875 C-10.23646684 175.81730411 -9.2584785 174.82783265 -8.28295898 173.8359375 C-7.44893555 173.000625 -6.61491211 172.1653125 -5.75561523 171.3046875 C14.2645513 150.22362325 21.26482697 123.64163604 20.66333008 95.30566406 C19.64052001 69.0605686 6.32633325 44.01445908 -12.28295898 25.8359375 C-27.56851983 12.6219724 -45.96080625 2.24333098 -66.28295898 -0.1640625 C-67.07959961 -0.27363281 -67.87624023 -0.38320313 -68.69702148 -0.49609375 C-71.56102136 -0.82860148 -74.4030761 -1.01481062 -77.28295898 -1.1640625 C-77.98565918 -1.20337891 -78.68835938 -1.24269531 -79.41235352 -1.28320312 C-112.75416808 -2.9228506 -141.20881157 12.41435277 -163.28295898 36.8359375 Z " fill="#00ABDF" transform="translate(626.282958984375,450.1640625)"/>
<path d="M0 0 C0.94875 0.04125 1.8975 0.0825 2.875 0.125 C5.79750745 12.1211508 5.93054723 24.45847398 6.23094273 36.74408245 C6.32801495 40.65575886 6.46859929 44.55417415 6.7199707 48.45922852 C8.45604557 76.12500211 8.45604557 76.12500211 -0.18017578 86.31884766 C-5.5684605 92.26948449 -11.73049376 97.29435258 -18.125 102.125 C-19.45035011 103.23079659 -19.45035011 103.23079659 -20.80247498 104.3589325 C-23.125 106.125 -23.125 106.125 -25.75 106.5625 C-28.125 106.125 -28.125 106.125 -30 105 C-31.125 103.125 -31.125 103.125 -30.9296875 100.2890625 C-30.01539493 96.69402859 -28.9301776 95.27343226 -26.375 92.625 C-25.21834839 91.35958374 -25.21834839 91.35958374 -24.03833008 90.06860352 C-22.09317228 88.00868187 -20.10255807 86.32603731 -17.81030273 84.66577148 C-12.61144146 80.565527 -8.83626197 76.43444972 -7.41278076 69.81109619 C-6.44352313 60.86295805 -6.64725749 51.88687941 -6.88537598 42.90374756 C-6.98939733 38.48089132 -7.00827419 34.05699567 -7.03424358 29.63310909 C-7.05518366 26.19327276 -7.0899025 22.75578845 -7.17060852 19.31678772 C-7.38007522 7.60035584 -7.38007522 7.60035584 -5.125 2.125 C-3.125 0.125 -3.125 0.125 0 0 Z " fill="#00ABDF" transform="translate(544.125,476.875)"/>
</svg>
