<?xml version="1.0" encoding="UTF-8"?>
<!DOCTYPE svg PUBLIC "-//W3C//DTD SVG 1.1//EN" "http://www.w3.org/Graphics/SVG/1.1/DTD/svg11.dtd">
<svg xmlns="http://www.w3.org/2000/svg" version="1.1" width="800px" height="800px" style="shape-rendering:geometricPrecision; text-rendering:geometricPrecision; image-rendering:optimizeQuality; fill-rule:evenodd; clip-rule:evenodd" xmlns:xlink="http://www.w3.org/1999/xlink">
<g><path style="opacity:1" fill="#00abdf" d="M 799.5,348.5 C 799.5,381.167 799.5,413.833 799.5,446.5C 795.98,451.182 791.647,455.016 786.5,458C 779.833,461.333 773.167,464.667 766.5,468C 741.251,478.794 715.918,489.294 690.5,499.5C 686.029,509.609 681.696,519.775 677.5,530C 689.412,555.656 700.912,581.49 712,607.5C 716.421,617.415 718.755,627.748 719,638.5C 718.529,640.246 717.862,641.913 717,643.5C 694.195,665.305 671.695,687.472 649.5,710C 638.579,710.75 628.079,708.917 618,704.5C 589.665,694.331 561.665,683.331 534,671.5C 522.754,675.624 511.754,680.291 501,685.5C 491.254,711.738 480.921,737.738 470,763.5C 466.215,772.916 461.048,781.416 454.5,789C 453.167,789.667 451.833,790.333 450.5,791C 434,791.167 417.5,791.333 401,791.5C 383.745,791.654 366.578,791.154 349.5,790C 346.296,787.131 343.463,783.965 341,780.5C 325.204,749.573 311.037,717.906 298.5,685.5C 287.618,680.929 276.785,676.262 266,671.5C 234.81,686.177 202.977,699.343 170.5,711C 163.257,713.316 156.257,712.983 149.5,710C 127.361,688.862 105.528,667.362 84,645.5C 82.5076,640.589 82.1743,635.589 83,630.5C 84.3543,624.416 86.021,618.416 88,612.5C 98.6173,585.266 109.784,558.266 121.5,531.5C 117.628,521.052 113.462,510.719 109,500.5C 80.2799,489.926 51.7799,478.759 23.5,467C 14.1785,463.192 6.1785,457.692 -0.5,450.5C -0.5,417.833 -0.5,385.167 -0.5,352.5C 4.71425,345.696 11.3809,340.529 19.5,337C 48.9665,323.931 78.6331,311.431 108.5,299.5C 113.028,289.248 117.362,278.915 121.5,268.5C 109.849,244.043 98.682,219.377 88,194.5C 85.2678,187.637 82.9344,180.637 81,173.5C 78.6901,167.326 79.0234,161.326 82,155.5C 104.472,134.029 126.639,112.195 148.5,90C 156.967,88.1525 165.301,88.8191 173.5,92C 204.393,102.853 234.893,114.686 265,127.5C 276.246,123.376 287.246,118.709 298,113.5C 309.243,81.4382 322.243,50.1049 337,19.5C 339.5,14.3333 343.333,10.5 348.5,8C 365,7.83333 381.5,7.66667 398,7.5C 415.255,7.34638 432.422,7.84638 449.5,9C 456.948,16.7186 462.781,25.5519 467,35.5C 478.585,61.2552 489.585,87.2552 500,113.5C 511,118.167 522,122.833 533,127.5C 564.089,112.58 595.922,99.4135 628.5,88C 636.305,85.3637 643.638,86.0303 650.5,90C 671.972,110.471 693.138,131.305 714,152.5C 716.401,157.232 717.068,162.232 716,167.5C 714.276,175.672 711.943,183.672 709,191.5C 698.631,217.069 688.131,242.569 677.5,268C 681.245,278.325 685.412,288.492 690,298.5C 719.275,309.594 748.441,321.094 777.5,333C 786.166,336.48 793.499,341.647 799.5,348.5 Z M 392.5,262.5 C 453.996,262.978 498.83,290.312 527,344.5C 549.85,404.929 538.016,457.429 491.5,502C 448.824,536.2 401.491,544.533 349.5,527C 293.035,503.245 263.368,460.745 260.5,399.5C 263.184,340.661 291.184,298.828 344.5,274C 360.068,267.791 376.068,263.958 392.5,262.5 Z"/></g>
</svg>
