<?xml version="1.0" encoding="UTF-8"?>
<!DOCTYPE svg PUBLIC "-//W3C//DTD SVG 1.1//EN" "http://www.w3.org/Graphics/SVG/1.1/DTD/svg11.dtd">
<svg xmlns="http://www.w3.org/2000/svg" version="1.1" width="800px" height="800px" style="shape-rendering:geometricPrecision; text-rendering:geometricPrecision; image-rendering:optimizeQuality; fill-rule:evenodd; clip-rule:evenodd" xmlns:xlink="http://www.w3.org/1999/xlink">
<g><path style="opacity:1" fill="#00abdf" d="M 581.5,-0.5 C 594.833,-0.5 608.167,-0.5 621.5,-0.5C 695.002,9.99392 748.502,48.3273 782,114.5C 790.982,135.105 796.815,156.438 799.5,178.5C 799.5,191.833 799.5,205.167 799.5,218.5C 794.169,260.823 777.669,298.156 750,330.5C 693.167,387.333 636.333,444.167 579.5,501C 516.702,552.262 447.035,563.929 370.5,536C 345.676,525.499 323.843,510.666 305,491.5C 284.261,456.865 289.428,426.698 320.5,401C 333.753,392.624 348.086,389.958 363.5,393C 386.026,432.595 420.026,449.262 465.5,443C 483.113,439.195 498.447,431.195 511.5,419C 563.333,367.167 615.167,315.333 667,263.5C 693.763,233.944 700.429,200.277 687,162.5C 665.566,119.195 630.733,100.695 582.5,107C 565.395,110.719 550.395,118.385 537.5,130C 505.5,162 473.5,194 441.5,226C 440.167,226.667 438.833,226.667 437.5,226C 393.919,209.602 349.253,205.602 303.5,214C 358.5,159 413.5,104 468.5,49C 501.1,21.0353 538.767,4.53533 581.5,-0.5 Z"/></g>
<g><path style="opacity:1" fill="#00abdf" d="M 217.5,799.5 C 204.167,799.5 190.833,799.5 177.5,799.5C 100.905,788.4 46.4048,747.733 14,677.5C 6.78443,658.969 1.95109,639.969 -0.5,620.5C -0.5,607.167 -0.5,593.833 -0.5,580.5C 4.83052,538.177 21.3305,500.844 49,468.5C 105.833,411.667 162.667,354.833 219.5,298C 282.299,246.7 351.966,235.033 428.5,263C 453.324,273.501 475.157,288.334 494,307.5C 514.739,342.135 509.572,372.302 478.5,398C 465.241,406.324 450.908,408.99 435.5,406C 414.603,368.546 382.603,351.546 339.5,355C 319.513,357.995 302.179,366.328 287.5,380C 235.667,431.833 183.833,483.667 132,535.5C 105.237,565.056 98.5706,598.723 112,636.5C 133.434,679.805 168.267,698.305 216.5,692C 233.605,688.281 248.605,680.615 261.5,669C 293.5,637 325.5,605 357.5,573C 358.833,572.333 360.167,572.333 361.5,573C 405.082,589.372 449.749,593.372 495.5,585C 440.5,640 385.5,695 330.5,750C 297.902,777.963 260.235,794.463 217.5,799.5 Z"/></g>
</svg>
