<?xml version="1.0" encoding="UTF-8"?>
<!DOCTYPE svg PUBLIC "-//W3C//DTD SVG 1.1//EN" "http://www.w3.org/Graphics/SVG/1.1/DTD/svg11.dtd">
<svg xmlns="http://www.w3.org/2000/svg" version="1.1" width="683px" height="683px" style="shape-rendering:geometricPrecision; text-rendering:geometricPrecision; image-rendering:optimizeQuality; fill-rule:evenodd; clip-rule:evenodd" xmlns:xlink="http://www.w3.org/1999/xlink">
<g><path style="opacity:1" fill="#000000" d="M 512.5,39.5 C 525.524,37.0574 533.191,42.2241 535.5,55C 531.692,77.3979 526.859,99.5646 521,121.5C 518.681,128.152 514.014,131.152 507,130.5C 497.547,130.706 492.047,126.206 490.5,117C 493.881,92.7575 499.048,68.9241 506,45.5C 508.063,43.2659 510.229,41.2659 512.5,39.5 Z"/></g>
<g><path style="opacity:1" fill="#000000" d="M 349.5,69.5 C 356.272,68.7271 361.105,71.3937 364,77.5C 425.919,183.67 487.586,290.003 549,396.5C 550.913,399.826 552.413,403.326 553.5,407C 553.017,413.674 549.684,418.007 543.5,420C 444.185,421.955 349.685,444.122 260,486.5C 220.874,420.421 182.374,353.921 144.5,287C 145.101,285.395 146.101,284.062 147.5,283C 227.237,226.602 292.404,156.769 343,73.5C 345.013,71.7518 347.18,70.4185 349.5,69.5 Z"/></g>
<g><path style="opacity:1" fill="#000000" d="M 634.5,125.5 C 647.083,126.249 653.249,132.915 653,145.5C 651.789,148.759 649.956,151.592 647.5,154C 628.785,166.026 609.452,177.026 589.5,187C 582.411,189.417 576.244,187.917 571,182.5C 565.888,174.341 566.721,166.841 573.5,160C 592.997,146.921 613.331,135.421 634.5,125.5 Z"/></g>
<g><path style="opacity:1" fill="#000000" d="M 463.5,171.5 C 489.946,168.314 510.446,177.647 525,199.5C 527.837,204.172 529.837,209.172 531,214.5C 535.789,236.198 530.289,254.698 514.5,270C 512.406,270.445 510.906,269.612 510,267.5C 492.293,236.585 474.46,205.752 456.5,175C 458.713,173.384 461.047,172.217 463.5,171.5 Z"/></g>
<g><path style="opacity:1" fill="#000000" d="M 590.5,251.5 C 615.986,256.606 640.652,264.439 664.5,275C 670.414,282.146 670.914,289.646 666,297.5C 661.034,302.089 655.2,303.589 648.5,302C 626.346,296.06 604.68,288.727 583.5,280C 575.488,267.881 577.821,258.381 590.5,251.5 Z"/></g>
<g><path style="opacity:1" fill="#000000" d="M 114.5,303.5 C 116.39,303.297 117.89,303.963 119,305.5C 156.583,370.086 193.749,434.919 230.5,500C 228.165,503.347 225.165,506.014 221.5,508C 200.487,520.175 179.154,531.841 157.5,543C 120.235,554.476 88.0682,546.309 61,518.5C 44.897,494.641 30.5636,469.641 18,443.5C 5.77433,402.515 16.2743,368.682 49.5,342C 71.0757,328.905 92.7424,316.072 114.5,303.5 Z"/></g>
<g><path style="opacity:1" fill="#000000" d="M 267.5,516.5 C 268.922,516.709 270.255,517.209 271.5,518C 292.029,538.195 312.195,558.695 332,579.5C 334.752,582.578 337.086,585.911 339,589.5C 340.452,594.848 340.118,600.181 338,605.5C 326.44,618.728 313.94,630.895 300.5,642C 295.5,642.667 290.5,642.667 285.5,642C 255.186,615.353 226.52,587.02 199.5,557C 222.036,543.234 244.703,529.734 267.5,516.5 Z"/></g>
</svg>
