<?xml version="1.0" encoding="UTF-8"?>
<!DOCTYPE svg PUBLIC "-//W3C//DTD SVG 1.1//EN" "http://www.w3.org/Graphics/SVG/1.1/DTD/svg11.dtd">
<svg xmlns="http://www.w3.org/2000/svg" version="1.1" width="683px" height="683px" style="shape-rendering:geometricPrecision; text-rendering:geometricPrecision; image-rendering:optimizeQuality; fill-rule:evenodd; clip-rule:evenodd" xmlns:xlink="http://www.w3.org/1999/xlink">
<g><path style="opacity:1" fill="#00abdf" d="M 98.5,84.5 C 115.557,83.235 129.723,88.9017 141,101.5C 148.179,112.814 150.512,125.148 148,138.5C 138.815,163.517 120.982,173.683 94.5,169C 69.4014,159.314 59.5681,141.147 65,114.5C 71.1746,98.8436 82.3413,88.8436 98.5,84.5 Z"/></g>
<g><path style="opacity:1" fill="#00abdf" d="M 283.5,84.5 C 385.505,84.1397 487.505,84.6397 589.5,86C 614.398,97.6358 623.232,116.802 616,143.5C 610.373,156.459 600.873,165.292 587.5,170C 465.833,170.667 344.167,170.667 222.5,170C 196.293,158.752 186.793,139.252 194,111.5C 200.012,99.1577 209.512,90.6577 222.5,86C 243.004,85.8319 263.337,85.3319 283.5,84.5 Z"/></g>
<g><path style="opacity:1" fill="#00abdf" d="M 95.5,298.5 C 135.337,297.166 152.504,316.166 147,355.5C 134.539,381.138 114.705,389.305 87.5,380C 64.0168,365.842 57.5168,346.009 68,320.5C 74.5066,309.685 83.6733,302.351 95.5,298.5 Z"/></g>
<g><path style="opacity:1" fill="#00abdf" d="M 224.5,298.5 C 345.834,298.333 467.167,298.5 588.5,299C 612.7,309.898 622.2,328.398 617,354.5C 611.5,368 602,377.5 588.5,383C 466.167,383.667 343.833,383.667 221.5,383C 197.603,372.372 188.103,354.205 193,328.5C 198.52,313.144 209.02,303.144 224.5,298.5 Z"/></g>
<g><path style="opacity:1" fill="#00abdf" d="M 98.5,511.5 C 123.376,509.589 139.876,520.256 148,543.5C 151.849,567.289 143.015,584.456 121.5,595C 102.689,600.568 86.5224,596.401 73,582.5C 61.5114,565.831 60.5114,548.498 70,530.5C 77.3163,520.767 86.8163,514.434 98.5,511.5 Z"/></g>
<g><path style="opacity:1" fill="#00abdf" d="M 260.5,511.5 C 369.501,511.333 478.501,511.5 587.5,512C 613.719,523.273 623.219,542.773 616,570.5C 610.771,582.728 601.938,591.228 589.5,596C 466.5,596.667 343.5,596.667 220.5,596C 195.612,584.384 186.779,565.218 194,538.5C 199.417,525.415 208.917,516.915 222.5,513C 235.34,512.831 248.007,512.331 260.5,511.5 Z"/></g>
</svg>
