<?xml version="1.0" encoding="UTF-8"?>
<!DOCTYPE svg PUBLIC "-//W3C//DTD SVG 1.1//EN" "http://www.w3.org/Graphics/SVG/1.1/DTD/svg11.dtd">
<svg xmlns="http://www.w3.org/2000/svg" version="1.1" width="683px" height="683px" style="shape-rendering:geometricPrecision; text-rendering:geometricPrecision; image-rendering:optimizeQuality; fill-rule:evenodd; clip-rule:evenodd" xmlns:xlink="http://www.w3.org/1999/xlink">
<g><path style="opacity:1" fill="#00abdf" d="M 612.5,95.5 C 637.239,96.3994 648.073,109.066 645,133.5C 640.493,146.766 631.16,153.433 617,153.5C 610.472,152.981 604.305,151.481 598.5,149C 567.352,172.991 536.685,197.491 506.5,222.5C 511.419,244.663 502.752,257.996 480.5,262.5C 470.508,262.012 462.008,258.345 455,251.5C 427.273,266.613 399.773,282.113 372.5,298C 370.575,304.959 368.075,311.792 365,318.5C 359.326,327.004 351.326,331.004 341,330.5C 329.151,330.912 320.484,325.912 315,315.5C 312.86,309.337 311.36,303.003 310.5,296.5C 282.414,280.707 254.247,265.04 226,249.5C 212.163,262.926 197.663,263.76 182.5,252C 181.167,251.333 179.833,251.333 178.5,252C 150.254,266.706 122.088,281.539 94,296.5C 94.8192,317.67 84.8192,329.67 64,332.5C 42.4606,328.28 33.4606,315.28 37,293.5C 42.1166,281.35 51.2832,274.684 64.5,273.5C 72.8918,274.179 80.2251,277.179 86.5,282.5C 115.287,267.94 143.954,253.106 172.5,238C 173.452,233.233 174.285,228.4 175,223.5C 181.446,205.857 193.946,199.023 212.5,203C 221,206.167 226.833,212 230,220.5C 231.332,226.001 232.499,231.501 233.5,237C 258.5,250.667 283.5,264.333 308.5,278C 311.603,279.367 314.77,280.534 318,281.5C 322.343,279.745 326.509,277.578 330.5,275C 343.955,270.815 355.455,273.982 365,284.5C 392.35,269.799 419.184,254.299 445.5,238C 446.667,236.833 447.833,235.667 449,234.5C 451.083,216.417 461.083,206.417 479,204.5C 485.889,204.874 492.389,206.374 498.5,209C 528.394,184.805 558.561,160.972 589,137.5C 587.316,126.62 588.983,116.287 594,106.5C 599.101,100.873 605.267,97.2062 612.5,95.5 Z"/></g>
<g><path style="opacity:1" fill="#00abdf" d="M 584.5,252.5 C 606.167,252.5 627.833,252.5 649.5,252.5C 649.5,363.833 649.5,475.167 649.5,586.5C 627.833,586.5 606.167,586.5 584.5,586.5C 584.5,475.167 584.5,363.833 584.5,252.5 Z"/></g>
<g><path style="opacity:1" fill="#00abdf" d="M 169.5,357.5 C 191.833,357.5 214.167,357.5 236.5,357.5C 235.677,433.83 235.343,510.164 235.5,586.5C 213.833,586.5 192.167,586.5 170.5,586.5C 170.249,510.166 169.915,433.833 169.5,357.5 Z"/></g>
<g><path style="opacity:1" fill="#00abdf" d="M 445.5,360.5 C 467.833,360.5 490.167,360.5 512.5,360.5C 512.068,435.833 511.735,511.166 511.5,586.5C 489.833,586.5 468.167,586.5 446.5,586.5C 446.649,511.164 446.315,435.83 445.5,360.5 Z"/></g>
<g><path style="opacity:1" fill="#00abdf" d="M 32.5,429.5 C 54.1667,429.5 75.8333,429.5 97.5,429.5C 97.5,481.833 97.5,534.167 97.5,586.5C 75.8333,586.5 54.1667,586.5 32.5,586.5C 32.5,534.167 32.5,481.833 32.5,429.5 Z"/></g>
<g><path style="opacity:1" fill="#00abdf" d="M 308.5,429.5 C 330.167,429.5 351.833,429.5 373.5,429.5C 373.5,481.833 373.5,534.167 373.5,586.5C 351.833,586.5 330.167,586.5 308.5,586.5C 308.5,534.167 308.5,481.833 308.5,429.5 Z"/></g>
</svg>
