<?xml version="1.0" encoding="UTF-8"?>
<svg version="1.1" xmlns="http://www.w3.org/2000/svg" width="683" height="683">
<path d="M0 0 C32.01 0 64.02 0 97 0 C97.99 7.92 97.99 7.92 99 16 C103.12403959 20.93585239 103.12403959 20.93585239 106.10384178 21.59733677 C106.80243624 21.58451632 107.50103069 21.57169588 108.22079468 21.55848694 C109.0305777 21.5564325 109.84036072 21.55437805 110.67468262 21.55226135 C111.9869281 21.51104408 111.9869281 21.51104408 113.32568359 21.46899414 C114.25816925 21.46020233 115.19065491 21.45141052 116.15139771 21.44235229 C118.17419363 21.42111404 120.19689761 21.38892699 122.2193718 21.34706306 C125.43354386 21.28447261 128.6460196 21.2591186 131.86074829 21.24473572 C140.99906664 21.19947278 150.13596785 21.10617318 159.27294922 20.94213867 C164.86829182 20.84432958 170.46153898 20.80620281 176.0576973 20.80398369 C178.17794306 20.79157012 180.29819087 20.75703419 182.41767502 20.69886971 C194.71636788 20.36773606 203.08278406 20.98273172 212.44421196 29.50261784 C213.51109172 30.53194072 214.56705165 31.57275793 215.60934544 32.62696934 C217.38390871 34.3790434 219.3093599 35.85077133 221.33203125 37.3046875 C221.91267334 37.73515381 222.49331543 38.16562012 223.09155273 38.60913086 C223.65946533 39.02686768 224.22737793 39.44460449 224.8125 39.875 C230.5772298 44.15869817 236.27649856 48.51765791 241.9375 52.9375 C249.87742736 59.13578234 257.86400873 65.2699455 265.87353516 71.37792969 C269.50111378 74.14505166 273.12562566 76.9161831 276.75 79.6875 C277.45874268 80.22938965 278.16748535 80.7712793 278.89770508 81.32958984 C285.2748949 86.20709213 291.63900772 91.10139665 298 96 C300.16644651 97.66695292 302.33322497 99.33347413 304.5 101 C305.58333938 101.83332547 306.66667272 102.6666588 307.75 103.5 C308.28625 103.9125 308.8225 104.325 309.375 104.75 C315.33333333 109.33333333 321.29166667 113.91666667 327.25 118.5 C327.78616943 118.91241943 328.32233887 119.32483887 328.87475586 119.74975586 C329.9589756 120.58380863 331.04312264 121.41795589 332.12719727 122.25219727 C334.82138305 124.32530105 337.51677797 126.39679151 340.21484375 128.46484375 C349.88456335 135.88122566 359.49427885 143.37414162 369 151 C368.51530625 155.84693754 366.13880888 159.07551481 363.3125 162.875 C362.63791748 163.80046631 362.63791748 163.80046631 361.94970703 164.74462891 C358.81787185 169.00325003 355.54821932 173.07828391 352 177 C347.23071 176.53276826 344.37996369 174.27634243 340.8125 171.3125 C339.57094134 170.30911722 338.32872046 169.30655347 337.0859375 168.3046875 C336.4269043 167.7694043 335.76787109 167.23412109 335.08886719 166.68261719 C331.40971178 163.71899644 327.67119326 160.83188174 323.9375 157.9375 C323.17131348 157.34203369 322.40512695 156.74656738 321.61572266 156.13305664 C315.09462937 151.06581222 308.55138405 146.02799996 302 141 C300.37829536 139.75321885 298.75696323 138.50595483 297.13574219 137.25854492 C296.04927433 136.42261331 294.96268666 135.58683738 293.87597656 134.7512207 C291.15385834 132.65800848 288.43309676 130.5630735 285.71484375 128.46484375 C278.52132844 122.91559104 271.28237209 117.43225594 264 112 C260.96221912 114.95497935 258.18390358 117.88720207 255.6875 121.3125 C255.17574219 122.00988281 254.66398438 122.70726562 254.13671875 123.42578125 C253.76160156 123.94527344 253.38648438 124.46476562 253 125 C254.38563656 128.24910912 255.87389274 129.97358915 258.67578125 132.1015625 C259.41441406 132.66875 260.15304687 133.2359375 260.9140625 133.8203125 C261.70554687 134.41585937 262.49703125 135.01140625 263.3125 135.625 C264.53646484 136.56085938 264.53646484 136.56085938 265.78515625 137.515625 C267.43067214 138.77304752 269.07859573 140.02732599 270.72900391 141.27832031 C273.66449429 143.50376411 276.58242886 145.75111674 279.5 148 C280.52738281 148.78890625 281.55476563 149.5778125 282.61328125 150.390625 C289.7675383 155.89422988 296.87843276 161.45421943 304 167 C307.29133322 169.56292868 310.58306038 172.12535028 313.875 174.6875 C314.62998779 175.27563477 315.38497559 175.86376953 316.1628418 176.46972656 C316.86965088 177.01983398 317.57645996 177.56994141 318.3046875 178.13671875 C318.92327637 178.61842529 319.54186523 179.10013184 320.17919922 179.59643555 C322.10645774 181.08206296 324.05027113 182.54402665 326 184 C323.15669079 193.84333443 315.81577455 201.56654588 309 209 C304.4888523 208.09445975 301.44935279 205.57368644 297.875 202.8125 C297.17850342 202.28221191 296.48200684 201.75192383 295.7644043 201.20556641 C293.50292769 199.47887639 291.25025457 197.74128547 289 196 C288.24187012 195.4136377 287.48374023 194.82727539 286.70263672 194.22314453 C282.88151865 191.26342052 279.06739731 188.29486336 275.2578125 185.3203125 C269.52947045 180.84847704 263.76447845 176.42510669 258 172 C257.02675781 171.24976563 256.05351562 170.49953125 255.05078125 169.7265625 C252.97462403 168.1262467 250.89669763 166.52850446 248.81640625 164.93359375 C245.7524259 162.58350141 242.70223317 160.21600018 239.65234375 157.84765625 C237.74758086 156.37736443 235.84263245 154.90731293 233.9375 153.4375 C233.02033203 152.72190918 232.10316406 152.00631836 231.15820312 151.26904297 C230.29001953 150.60146973 229.42183594 149.93389648 228.52734375 149.24609375 C227.75124756 148.64466553 226.97515137 148.0432373 226.17553711 147.42358398 C224.06036285 146.03949902 222.47095043 145.42757666 220 145 C218.51551984 146.76638144 217.03758035 148.53826138 215.5625 150.3125 C214.73878906 151.29863281 213.91507813 152.28476562 213.06640625 153.30078125 C210.85878424 155.88100145 210.85878424 155.88100145 210 159 C219.25010511 166.4461427 228.56370694 173.79155857 238 181 C253.07976466 192.56435456 268.07222186 204.24017478 283 216 C282.52049788 220.878012 280.09439112 224.11894603 277.25 227.9375 C276.60417969 228.82985352 276.60417969 228.82985352 275.9453125 229.74023438 C273.1094629 233.62466908 270.11205709 237.33381764 267 241 C261.6279541 240.61554024 258.36013356 237.53941523 254.3125 234.3125 C253.57064453 233.73306641 252.82878906 233.15363281 252.06445312 232.55664062 C250.49530387 231.33004285 248.92911918 230.09964438 247.36572266 228.86572266 C244.3355701 226.47599863 241.2886756 224.10823216 238.2409668 221.7409668 C236.73761006 220.57303599 235.2351791 219.40391261 233.73364258 218.23364258 C227.98491839 213.75401262 222.20140071 209.32167626 216.40551758 204.90332031 C211.92168224 201.48102168 207.45974554 198.03208367 203.01220703 194.56274414 C200.74143814 192.79205951 198.46678335 191.02647579 196.19140625 189.26171875 C193.55944023 187.21968646 190.94297414 185.16065566 188.33984375 183.08203125 C187.26852109 182.24181515 186.19692815 181.4019435 185.125 180.5625 C184.22007812 179.84191406 183.31515625 179.12132812 182.3828125 178.37890625 C180.16600534 176.85387623 180.16600534 176.85387623 177.9765625 176.8984375 C174.93067126 178.59595001 173.21223754 181.26615171 171.25 184.0625 C170.83878906 184.63033203 170.42757812 185.19816406 170.00390625 185.78320312 C168.99304964 187.18194657 167.99522794 188.59009375 167 190 C170.45687665 193.59032226 174.0128393 196.67220972 178 199.6875 C179.16281803 200.5715388 180.32557687 201.45565547 181.48828125 202.33984375 C182.07561035 202.78440918 182.66293945 203.22897461 183.26806641 203.68701172 C185.91747711 205.69554439 188.55240071 207.72274364 191.1875 209.75 C191.71384033 210.15468506 192.24018066 210.55937012 192.7824707 210.97631836 C198.96598742 215.73504483 205.12133801 220.52999412 211.27734375 225.32421875 C214.49579021 227.83058981 217.71740466 230.33281014 220.94140625 232.83203125 C221.74682861 233.4569043 222.55225098 234.08177734 223.38208008 234.72558594 C224.91643538 235.91586218 226.45139145 237.10536458 227.98706055 238.29394531 C232.05876242 241.45463141 236.06153014 244.67459384 240 248 C239.48070092 252.58856076 237.46391523 255.6644497 234.8125 259.3125 C234.40974854 259.8799292 234.00699707 260.4473584 233.59204102 261.03198242 C230.47053403 265.41030505 227.28166478 269.74027043 224 274 C219.95610311 273.40559588 217.13931112 271.17903606 213.9375 268.8125 C213.33317139 268.37325195 212.72884277 267.93400391 212.10620117 267.48144531 C210.06556975 265.9946446 208.0324495 264.49796289 206 263 C204.50787084 261.90486843 203.01568158 260.80981873 201.5234375 259.71484375 C197.49571168 256.75493165 193.47484983 253.78581505 189.45556641 250.81445312 C185.47350788 247.87205315 181.48656062 244.9362956 177.5 242 C175.91664211 240.83336666 174.3333088 239.66669996 172.75 238.5 C171.96625 237.9225 171.1825 237.345 170.375 236.75 C106.25 189.5 106.25 189.5 103.87475586 187.74975586 C102.29231815 186.58379194 100.70979869 185.41793896 99.12719727 184.25219727 C95.15448113 181.32568557 91.18323006 178.39722466 87.21484375 175.46484375 C78.70220107 169.17791602 70.15872347 162.93887105 61.56713867 156.76025391 C57.26684132 153.66002853 52.99795736 150.52358687 48.76660156 147.32983398 C47.42895498 146.32336019 46.08587089 145.32407026 44.73730469 144.33227539 C41.61251203 142.02729673 38.62210251 139.69916766 35.76953125 137.0625 C23.70341194 126.71591292 18.66855568 129.74674223 0 129 C0 86.43 0 43.86 0 0 Z " fill="#716EF6" transform="translate(138,362)"/>
<path d="M0 0 C11.43411182 9.30751268 21.58614033 19.54597322 29.1875 32.25 C29.56745117 32.87712891 29.94740234 33.50425781 30.33886719 34.15039062 C41.09102668 52.21543683 46.61449444 72.33789141 46.5 93.375 C46.49262817 95.00187744 46.49262817 95.00187744 46.48510742 96.66162109 C46.00528936 129.99298273 32.08434858 158.31960912 8.75390625 181.6875 C-4.7290793 194.43988042 -21.56460446 202.59619222 -38.86035156 208.85400391 C-39.59092773 209.12390137 -40.32150391 209.39379883 -41.07421875 209.671875 C-42.04814575 210.02137207 -42.04814575 210.02137207 -43.04174805 210.37792969 C-47.77976135 212.71133428 -49.48999079 217.29407956 -51.6484375 221.84765625 C-52.00966705 222.59655624 -52.37089661 223.34545624 -52.74307251 224.11705017 C-53.89713249 226.51274128 -55.04253196 228.91245231 -56.1875 231.3125 C-56.94992785 232.90067543 -57.71294278 234.48856917 -58.4765625 236.07617188 C-59.58543636 238.38162357 -60.6939536 240.68723354 -61.79998779 242.99404907 C-64.41371866 248.44170444 -67.07685334 253.86234751 -69.8125 259.25 C-70.8025 259.25 -71.7925 259.25 -72.8125 259.25 C-73.85752757 257.1891537 -74.8986193 255.12644718 -75.9375 253.0625 C-76.28079346 252.3828418 -76.62408691 251.70318359 -76.9777832 251.00292969 C-79.16852546 246.63360817 -81.29865921 242.24032691 -83.37371826 237.81474304 C-84.60086058 235.19785157 -85.8368798 232.58518067 -87.07244873 229.97225952 C-87.6885476 228.66224367 -88.30012038 227.35008922 -88.90704346 226.03579712 C-89.77428796 224.158903 -90.65708736 222.29002983 -91.54296875 220.421875 C-92.05239014 219.3297168 -92.56181152 218.23755859 -93.08666992 217.11230469 C-95.93874001 212.38212082 -99.58264832 210.08156587 -104.65625 208.13671875 C-105.56648926 207.77964844 -106.47672852 207.42257812 -107.41455078 207.0546875 C-108.37087402 206.68601562 -109.32719727 206.31734375 -110.3125 205.9375 C-140.14032785 194.04341601 -165.1086609 173.8602194 -178.8125 144.25 C-191.68211617 113.78344949 -192.63241616 80.36005092 -180.73535156 49.49072266 C-175.80046564 37.50861074 -169.08239699 27.17661476 -160.8125 17.25 C-160.38912354 16.72946045 -159.96574707 16.2089209 -159.52954102 15.67260742 C-145.48003892 -1.50608988 -125.55776286 -12.03109523 -104.8125 -18.75 C-103.78261963 -19.09321289 -103.78261963 -19.09321289 -102.73193359 -19.44335938 C-68.75833851 -30.38900339 -28.15642248 -20.81723318 0 0 Z M-81.8125 -0.75 C-81.8125 6.84 -81.8125 14.43 -81.8125 22.25 C-86.2675 23.735 -86.2675 23.735 -90.8125 25.25 C-93.76700399 26.93552031 -96.24530769 29.02405002 -98.8125 31.25 C-99.43253906 31.7759375 -100.05257812 32.301875 -100.69140625 32.84375 C-108.13687609 39.66206363 -112.26180515 49.02586746 -113.1484375 59.046875 C-113.25832042 70.16702681 -111.80438469 79.13936237 -104.8125 88.25 C-104.090625 89.24 -103.36875 90.23 -102.625 91.25 C-93.92125603 101.32524302 -80.93651515 104.20347481 -68.33178711 106.1237793 C-64.18865341 106.79764065 -61.30785264 107.95994137 -57.8125 110.25 C-57.1525 110.25 -56.4925 110.25 -55.8125 110.25 C-55.14583333 111.58333333 -54.47916667 112.91666667 -53.8125 114.25 C-53.27625 115.075 -52.74 115.9 -52.1875 116.75 C-49.77129208 122.90034744 -49.84679097 129.4545265 -52 135.6875 C-55.93413139 141.24954783 -60.30670174 145.12681628 -66.8125 147.25 C-73.6017699 148.31858143 -79.20677793 147.26304488 -84.8125 143.25 C-89.68947281 138.59470777 -91.51453878 133.54811593 -93.8125 127.25 C-100.4125 127.25 -107.0125 127.25 -113.8125 127.25 C-112.09071867 140.7111995 -107.93376115 149.96150085 -97.8125 159.25 C-92.64804487 163.01445223 -87.90456659 165.21931114 -81.8125 167.25 C-81.8125 174.84 -81.8125 182.43 -81.8125 190.25 C-74.8825 190.25 -67.9525 190.25 -60.8125 190.25 C-60.8125 182.66 -60.8125 175.07 -60.8125 167.25 C-57.8425 166.26 -57.8425 166.26 -54.8125 165.25 C-42.36303327 159.03488755 -35.22408723 150.55432882 -30.4375 137.5 C-28.27497637 126.66508779 -28.79738519 115.02668438 -34.4765625 105.44140625 C-42.05963876 94.30848353 -51.61587963 87.52292157 -64.96044922 84.81396484 C-67.93454113 84.29155017 -70.90473903 83.79536482 -73.90039062 83.41308594 C-80.02874833 82.54630308 -83.94386695 80.32625895 -88.0625 75.75 C-92.31187371 69.67946613 -92.56549395 64.58227856 -91.8125 57.25 C-90.09690399 51.29415248 -86.82673855 47.72926757 -81.8125 44.25 C-75.39930331 41.17296119 -68.05477287 41.1299421 -61.375 43.4375 C-54.10284202 48.5812215 -51.96679725 54.04882716 -48.8125 62.25 C-42.2125 62.25 -35.6125 62.25 -28.8125 62.25 C-30.65947749 47.8099942 -35.64986094 37.66591522 -47.1484375 28.359375 C-51.8481109 25.05516776 -54.99050724 23.9134265 -60.8125 22.25 C-60.8125 14.66 -60.8125 7.07 -60.8125 -0.75 C-67.7425 -0.75 -74.6725 -0.75 -81.8125 -0.75 Z " fill="#716EF6" transform="translate(412.8125,54.75)"/>
<path d="M0 0 C9.54471577 -0.1809161 19.08828871 -0.32760439 28.63433266 -0.41449738 C33.06725505 -0.45620736 37.4989414 -0.51275363 41.93115234 -0.60351562 C46.21064721 -0.69059942 50.48895538 -0.73830567 54.76926804 -0.75901794 C56.40007588 -0.77377247 58.03082045 -0.80258749 59.66112137 -0.84584045 C72.51696803 -1.1732728 72.51696803 -1.1732728 76.24627686 1.77709961 C77.82958984 3.94726562 77.82958984 3.94726562 78.93539429 6.11877441 C79.98999463 8.40801665 79.98999463 8.40801665 83.5 9.625 C87.4205212 10.04505584 89.52191366 9.86037176 93 8 C94.15521502 5.52869082 94.15521502 5.52869082 95 3 C96.60160828 1.73292542 96.60160828 1.73292542 99 1 C101.5460154 1.45349551 103.79680484 2.00997089 106.24926758 2.77319336 C106.97368546 2.98598938 107.69810333 3.1987854 108.44447327 3.41802979 C110.84885242 4.12812013 113.24643232 4.85885032 115.64453125 5.58984375 C117.33212051 6.09285359 119.02009065 6.5945872 120.7084198 7.09510803 C125.17351756 8.42266242 129.63312745 9.76781642 134.09185791 11.11657715 C137.66270342 12.19403923 141.23679138 13.26045761 144.81131077 14.32565784 C147.43028991 15.10626836 150.04856182 15.88921479 152.66673279 16.67253113 C156.11634328 17.70418446 159.56810829 18.72817879 163.02137756 19.74751282 C176.75651869 23.82165399 176.75651869 23.82165399 183.02709961 26.28393555 C202.92365483 33.90838747 224.98711175 31.99189881 245.9375 31.9375 C267.2534375 31.9684375 267.2534375 31.9684375 289 32 C289 74.57 289 117.14 289 161 C267.32862354 161 267.32862354 161 259.91259766 154.69799805 C259.43870605 154.22402588 258.96481445 153.75005371 258.4765625 153.26171875 C254.78031715 149.71992745 250.78251635 146.68825965 246.6875 143.625 C245.24246829 142.52477757 243.7984629 141.42320593 242.35546875 140.3203125 C241.63536621 139.77149414 240.91526367 139.22267578 240.17333984 138.65722656 C236.6125753 135.9420536 233.05649684 133.22075902 229.5 130.5 C228.08335644 129.41663645 226.66668976 128.33330314 225.25 127.25 C211.08333333 116.41666667 196.91666667 105.58333333 182.75 94.75 C182.04842773 94.2135083 181.34685547 93.6770166 180.62402344 93.12426758 C179.21059349 92.04339983 177.79718196 90.96250799 176.38378906 89.8815918 C172.79275299 87.13533495 169.2013752 84.38952697 165.609375 81.64453125 C158.1834238 75.96898284 150.76522047 70.28379536 143.359375 64.58203125 C136.58555491 59.37155679 129.79034472 54.18890501 123 49 C120.08315537 46.77106607 117.16644974 44.54195061 114.25 42.3125 C113.54818604 41.7760083 112.84637207 41.2395166 112.12329102 40.68676758 C106.61885721 36.47719181 101.12509869 32.2539173 95.63671875 28.0234375 C94.76660156 27.35570312 93.89648438 26.68796875 93 26 C92.19523224 25.20827644 92.19523224 25.20827644 91.37420654 24.40055847 C87.85092823 22.32215577 84.35418281 22.56064623 80.37597656 22.56762695 C79.50732468 22.5574353 78.63867279 22.54724365 77.74369812 22.53674316 C74.87594177 22.5065779 72.00851926 22.49734182 69.140625 22.48828125 C67.15092862 22.47143719 65.16124289 22.45328732 63.17156982 22.43388367 C57.93718801 22.38634799 52.70284942 22.35656164 47.46832275 22.33044434 C42.12593043 22.30065687 36.78368705 22.2541203 31.44140625 22.20898438 C20.9609982 22.12291049 10.48060583 22.05713136 0 22 C0 14.74 0 7.48 0 0 Z " fill="#716EF6" transform="translate(256,341)"/>
<path d="M0 0 C28.38 0 56.76 0 86 0 C86 56.76 86 113.52 86 172 C57.62 172 29.24 172 0 172 C0 115.24 0 58.48 0 0 Z " fill="#716EF6" transform="translate(32,341)"/>
<path d="M0 0 C28.38 0 56.76 0 86 0 C86 56.43 86 112.86 86 171 C57.62 171 29.24 171 0 171 C0 114.57 0 58.14 0 0 Z " fill="#716EF6" transform="translate(565,352)"/>
<path d="M0 0 C5.19031078 1.6174933 9.06772586 4.85512037 13.3125 8.125 C14.05306641 8.68832031 14.79363281 9.25164063 15.55664062 9.83203125 C17.37501609 11.21634289 19.18924674 12.60574226 21 14 C19.70940058 17.54234144 18.18892213 20.38960611 15.9609375 23.42578125 C15.38085938 24.22177734 14.80078125 25.01777344 14.203125 25.83789062 C13.59984375 26.65451172 12.9965625 27.47113281 12.375 28.3125 C11.76398438 29.14845703 11.15296875 29.98441406 10.5234375 30.84570312 C9.02036533 32.90068461 7.51245679 34.95192117 6 37 C2.89614291 35.83667609 0.20641154 34.62923253 -2.48046875 32.6875 C-3.08697266 32.25179687 -3.69347656 31.81609375 -4.31835938 31.3671875 C-4.93517578 30.91601562 -5.55199219 30.46484375 -6.1875 30 C-6.81591797 29.54882812 -7.44433594 29.09765625 -8.09179688 28.6328125 C-10.53973024 26.86296977 -12.86064331 25.13935669 -15 23 C-14.83267117 18.07700958 -12.00677693 14.74090221 -9.1875 10.9375 C-8.74857422 10.32583984 -8.30964844 9.71417969 -7.85742188 9.08398438 C-5.45557946 5.78278938 -2.99398556 2.79857392 0 0 Z " fill="#716EF6" transform="translate(217,557)"/>
<path d="M0 0 C4.71701495 0.50384322 7.36865488 2.48903756 11.0625 5.375 C12.08472656 6.16648437 13.10695313 6.95796875 14.16015625 7.7734375 C15.09730469 8.50820313 16.03445313 9.24296875 17 10 C18.33043455 11.00385342 19.66244463 12.00565428 21 13 C20.52817812 18.06486344 18.01844167 21.18650829 15.0625 25.125 C14.15734818 26.35662101 13.25239317 27.58838668 12.34765625 28.8203125 C11.18556641 30.39425781 11.18556641 30.39425781 10 32 C9.34 32.99 8.68 33.98 8 35 C3.86369737 34.40332065 0.87750255 32.05535896 -2.4375 29.6875 C-2.99759766 29.29626953 -3.55769531 28.90503906 -4.13476562 28.50195312 C-7.52300382 26.11793022 -10.79189395 23.62045298 -14 21 C-11.11200696 13.01889608 -5.51775302 6.3537762 0 0 Z " fill="#716EF6" transform="translate(290,612)"/>
<path d="M0 0 C4.75364972 2.48486235 9.10993205 5.39862095 13.4375 8.5625 C15.01337891 9.70912109 15.01337891 9.70912109 16.62109375 10.87890625 C17.40613281 11.57886719 18.19117188 12.27882813 19 13 C19 16.41851781 18.5147569 17.01709375 16.515625 19.65234375 C15.99226563 20.34650391 15.46890625 21.04066406 14.9296875 21.75585938 C14.37539062 22.47580078 13.82109375 23.19574219 13.25 23.9375 C12.71117187 24.65357422 12.17234375 25.36964844 11.6171875 26.10742188 C8.93465125 29.63724701 6.25765636 32.97164469 3 36 C-1.00638836 34.57955322 -4.18022159 32.66906902 -7.625 30.1875 C-8.56601563 29.52105469 -9.50703125 28.85460937 -10.4765625 28.16796875 C-13.04148644 25.96435762 -14.44955757 23.98121985 -16 21 C-5.62642369 6.21867882 -5.62642369 6.21867882 0 0 Z " fill="#716EF6" transform="translate(181,530)"/>
<path d="M0 0 C4.84199642 1.35024188 8.2990566 3.36616696 12.3125 6.375 C13.36050781 7.14585937 14.40851563 7.91671875 15.48828125 8.7109375 C18 11 18 11 19.046875 12.9609375 C18.97630353 16.03079624 17.63764235 17.72324916 15.9375 20.25 C15.29554688 21.21035156 14.65359375 22.17070313 13.9921875 23.16015625 C11.4108998 26.83975656 8.76935792 30.45968529 6 34 C0.44014241 33.56972271 -2.59890719 31.54588241 -6.8125 28.1875 C-7.39708984 27.74857422 -7.98167969 27.30964844 -8.58398438 26.85742188 C-10.80438007 25.12587344 -12.69690389 23.50998766 -14.14453125 21.07421875 C-13.90631745 17.65552881 -11.85310061 15.2911356 -9.875 12.625 C-9.483125 12.07328125 -9.09125 11.5215625 -8.6875 10.953125 C-5.95906064 7.15470942 -3.02603812 3.56447907 0 0 Z " fill="#716EF6" transform="translate(254,585)"/>
</svg>
