<svg xmlns="http://www.w3.org/2000/svg" width="800" height="800" viewBox="0 0 800 800" version="1.1"><path d="" stroke="none" fill="#786cf4" fill-rule="evenodd"/><path d="M 346.350 9.928 C 344.617 10.985, 341.748 13.960, 339.973 16.540 C 333.167 26.432, 318.735 59.688, 303.973 99.500 C 301.118 107.200, 298.112 114.032, 297.292 114.682 C 296.473 115.333, 288.965 118.606, 280.608 121.957 L 265.412 128.049 254.456 123.432 C 215.261 106.915, 178.944 93.445, 165.662 90.499 C 151.508 87.359, 154.490 85.406, 116.036 123.009 C 90.923 147.566, 81.786 157.119, 80.929 159.714 C 77.813 169.155, 84.952 189.425, 111.442 246.351 L 122.023 269.090 115.405 284.933 L 108.787 300.776 87.643 309.042 C 45.199 325.636, 16.449 338.555, 7.787 344.926 C -0.474 351.001, 0.014 347.393, 0.007 402.421 L 0 451.343 4.392 455.551 C 11.981 462.823, 36.536 473.691, 86.711 491.986 C 98.549 496.302, 108.566 500.209, 108.971 500.667 C 109.377 501.125, 112.540 508.225, 115.999 516.444 L 122.288 531.388 120.718 535.444 C 119.855 537.675, 114.413 550.403, 108.624 563.729 C 89.155 608.549, 82.329 628.897, 83.208 639.497 C 83.760 646.149, 80.256 642.224, 121.693 682.603 L 152.886 713 159.640 713 C 170.455 713, 191.953 705.140, 244.436 681.996 L 266.371 672.323 282.629 678.912 L 298.886 685.500 304.622 699.500 C 327.401 755.100, 338.709 778.677, 346.411 786.629 L 351.613 792 401.057 791.996 C 457.696 791.992, 453.737 792.622, 460.429 782.541 C 467.459 771.949, 483.033 735.730, 497.590 696.117 L 501.406 685.734 507.453 683.050 C 510.779 681.573, 518.243 678.472, 524.040 676.157 L 534.580 671.949 556.040 680.832 C 604.145 700.744, 630.022 709.767, 641.718 710.705 L 648.936 711.284 683.418 677.558 C 708.630 652.900, 718.206 642.905, 719.039 640.382 C 722.100 631.107, 714.287 609, 688.037 552.653 L 677.859 530.806 684.514 515.040 L 691.169 499.273 715.835 489.511 C 766.523 469.450, 787.251 459.656, 795.164 452.029 C 798.685 448.635, 800.045 447.832, 800.352 448.965 C 800.581 449.809, 800.820 428.548, 800.884 401.718 C 801.013 347.508, 801.152 348.760, 794.374 343.136 C 786.348 336.476, 758.896 324.637, 714 308.473 C 702.175 304.216, 691.966 300.230, 691.314 299.616 C 689.858 298.247, 678 270.294, 678 268.232 C 678 267.417, 681.557 258.594, 685.904 248.625 C 714.376 183.332, 720.578 163.379, 715.162 154.499 C 714.155 152.848, 698.420 136.985, 680.194 119.249 L 647.055 87 640.540 87 C 629.726 87, 605.655 95.728, 556.594 117.438 L 533.500 127.657 517.160 120.995 L 500.820 114.333 490.348 88.965 C 469.921 39.480, 459.379 18.295, 451.747 11.394 L 447.994 8 398.747 8.004 C 351.941 8.007, 349.344 8.103, 346.350 9.928 M 386.500 263.948 C 330.425 270.446, 284.776 306.651, 267.486 358.340 C 263.021 371.687, 261.009 384.642, 261.004 400.074 C 260.992 437.542, 275.557 471.132, 303.328 497.681 C 329.728 522.919, 363.341 536.362, 400 536.344 C 430.691 536.329, 459.732 526.684, 483.896 508.481 C 511.227 487.893, 529.321 459.528, 536.658 425.768 C 539.176 414.181, 539.217 385.819, 536.731 374.308 C 531.109 348.268, 519.350 325.929, 501.258 306.917 C 475.914 280.285, 442.104 265.145, 404.500 263.591 C 398.450 263.341, 390.350 263.502, 386.500 263.948 M 0.463 402 C 0.463 429.225, 0.592 440.363, 0.749 426.750 C 0.906 413.137, 0.906 390.863, 0.749 377.250 C 0.592 363.637, 0.463 374.775, 0.463 402" stroke="none" fill="#746cf4" fill-rule="evenodd"/></svg>