<?xml version="1.0" encoding="UTF-8"?>
<svg version="1.1" xmlns="http://www.w3.org/2000/svg" width="500px" height="500px">
<path d="M0 0 C5.08647075 4.61274363 8.29225274 10.61654514 11.5625 16.5625 C12.61699784 18.44354537 13.67303735 20.32372717 14.73046875 22.203125 C15.53943604 23.64461914 15.53943604 23.64461914 16.36474609 25.11523438 C18.9735335 29.71741891 21.67213569 34.26513008 24.375 38.8125 C30.71473791 49.50000244 36.98098698 60.2292854 43.23388672 70.96777344 C45.57133947 74.98092842 47.91152285 78.99248721 50.25195312 83.00390625 C52.00292846 86.00501928 53.75341687 89.006416 55.50390625 92.0078125 C57.82252074 95.98276499 60.14297316 99.95663617 62.46484375 103.9296875 C69.14383479 115.36219469 75.78547374 126.81535395 82.39428711 138.28857422 C86.57327594 145.53921986 90.7773134 152.77472586 95 160 C100.49945536 169.4099033 105.95449196 178.84470563 111.39453125 188.2890625 C115.57349158 195.53951541 119.77747989 202.77483863 124 210 C130.74713114 221.54722486 137.4333937 233.12902119 144.10888672 244.71777344 C146.6132875 249.06442514 149.12020953 253.40961955 151.62744141 257.75463867 C152.87609564 259.91870134 154.12446793 262.08292671 155.37255859 264.24731445 C158.50520482 269.67943894 161.64152806 275.10937881 164.78515625 280.53515625 C171.12726583 291.48866818 177.42595836 302.46476825 183.625 313.5 C184.1929126 314.50812744 184.7608252 315.51625488 185.34594727 316.55493164 C186.91585507 319.36026921 188.4645169 322.17569066 190 325 C190.50160645 325.91354248 191.00321289 326.82708496 191.52001953 327.76831055 C191.98263184 328.64269775 192.44524414 329.51708496 192.921875 330.41796875 C193.33276367 331.1864917 193.74365234 331.95501465 194.16699219 332.74682617 C195.40505459 336.09561807 194.99098743 338.68053887 193.91015625 342.0234375 C192.37329647 345.36099566 191.07735458 346.92749589 188 349 C180.8636211 350.88433187 173.52722582 351.3743804 166.18359375 351.7109375 C164.11651311 351.81962515 162.04945667 351.92877401 159.98242188 352.03833008 C158.91435303 352.09276276 157.84628418 352.14719543 156.74584961 352.20327759 C71.01799512 356.65304732 -11.25926531 377.24426754 -89.39819336 412.84594727 C-96.5089909 416 -96.5089909 416 -100 416 C-100.40613525 415.2879541 -100.81227051 414.5759082 -101.23071289 413.84228516 C-110.49029763 397.61238092 -119.78775023 381.40519854 -129.13671875 365.2265625 C-131.0203505 361.96475993 -132.90122321 358.70138156 -134.78125 355.4375 C-140.80439832 344.98286887 -146.84544287 334.53964426 -152.9375 324.125 C-160.02755491 311.99724813 -166.99449157 299.80025099 -173.95019531 287.59521484 C-177.71505843 280.99018789 -181.48993171 274.39087326 -185.26293945 267.79049683 C-188.61885234 261.91958615 -191.97372982 256.04811021 -195.3203125 250.171875 C-195.83408447 249.27065918 -196.34785645 248.36944336 -196.87719727 247.44091797 C-197.85822216 245.71936718 -198.83792756 243.99706365 -199.81616211 242.27392578 C-202.15379475 238.16998262 -204.53228672 234.09995588 -206.99609375 230.0703125 C-207.47062988 229.28809326 -207.94516602 228.50587402 -208.43408203 227.69995117 C-209.32654794 226.23511207 -210.22925964 224.77644616 -211.14404297 223.32543945 C-214.06029571 218.52794599 -214.06029571 218.52794599 -213.76391602 215.93286133 C-212.5155579 212.77426395 -209.79151026 211.18269147 -207.125 209.25 C-206.53783203 208.81171875 -205.95066406 208.3734375 -205.34570312 207.921875 C-203.5721589 206.60274156 -201.78835406 205.29896312 -200 204 C-199.05898437 203.31421875 -198.11796875 202.6284375 -197.1484375 201.921875 C-195.36824404 200.6300532 -193.58697572 199.33971143 -191.8046875 198.05078125 C-182.96187226 191.58493445 -174.45865325 184.79211233 -166.140625 177.66796875 C-163.18083319 175.13791244 -160.15871204 172.69106065 -157.125 170.25 C-153.41109659 167.22943023 -149.97951097 164.10098542 -146.65625 160.66015625 C-144.94488165 158.94475165 -143.15810592 157.38202143 -141.3125 155.8125 C-137.13429544 152.21843278 -133.29678974 148.32857057 -129.4296875 144.40795898 C-126.64904929 141.60312218 -123.83601951 138.92175695 -120.8125 136.375 C-117.05471712 133.1705103 -113.88241325 129.58308278 -110.625 125.87890625 C-107.4811483 122.43096175 -104.19257605 119.15463847 -100.875 115.875 C-96.03423926 111.07432442 -91.38955047 106.22026109 -87 101 C-86.11459066 99.97673012 -85.22773296 98.9547126 -84.33984375 97.93359375 C-65.50732589 76.22784612 -48.95592907 53.2406222 -33.3414917 29.14709473 C-29.94688377 23.91025483 -26.51871774 18.69641513 -23.0625 13.5 C-22.5969873 12.79544678 -22.13147461 12.09089355 -21.65185547 11.36499023 C-16.2658619 3.27591752 -10.75468076 -4.39723401 0 0 Z " fill="#716EF6" transform="translate(359,71)"/>
<path d="M0 0 C2.96564091 1.63890682 4.20696771 4.25594567 5.8046875 7.12890625 C6.37388916 8.11443481 6.37388916 8.11443481 6.95458984 9.11987305 C7.8125559 10.60637267 8.66524915 12.09592355 9.51367188 13.58789062 C11.02455145 16.23245087 12.56014423 18.86140915 14.1015625 21.48828125 C20.89919724 33.07671379 27.61677089 44.71114826 34.32275391 56.3527832 C38.50208582 63.60419967 42.70672782 70.84032065 46.9296875 78.06640625 C57.39156393 95.97497153 67.73488776 113.95092559 78.00576782 131.96957397 C82.05355927 139.06906126 86.13383077 146.1479391 90.27099609 153.19580078 C93.17405935 158.14294999 96.05763215 163.10119696 98.9296875 168.06640625 C99.26625366 168.64807556 99.60281982 169.22974487 99.94958496 169.82904053 C102.09536694 173.54262813 104.22460393 177.26506529 106.33566284 180.99850464 C107.01831658 182.20157556 107.70521251 183.40225012 108.39651489 184.60037231 C109.35550253 186.26463647 110.29729749 187.93877177 111.23828125 189.61328125 C112.05510376 191.04945801 112.05510376 191.04945801 112.88842773 192.51464844 C113.9296875 195.06640625 113.9296875 195.06640625 113.86254883 197.20288086 C110.03020109 204.8585496 96.87695978 209.69759281 89.6796875 213.75390625 C88.44302818 214.45484318 87.20645721 215.155936 85.9699707 215.85717773 C82.29560823 217.93718648 78.61404068 220.004156 74.9296875 222.06640625 C73.87378418 222.65776367 72.81788086 223.24912109 71.72998047 223.85839844 C34.38316825 244.69264099 34.38316825 244.69264099 11.1171875 244.50390625 C10.12448349 244.49834717 10.12448349 244.49834717 9.11172485 244.49267578 C-0.90890829 244.4127686 -9.72110263 243.91033226 -19.0703125 240.06640625 C-19.74271973 239.79795898 -20.41512695 239.52951172 -21.10791016 239.25292969 C-31.64434033 234.97005935 -40.47814616 229.48747388 -49.0703125 222.06640625 C-50.06224609 221.24269531 -50.06224609 221.24269531 -51.07421875 220.40234375 C-73.83877783 199.80332277 -102.4062039 148.9784841 -104.0703125 118.06640625 C-105.11284212 95.35960268 -100.14921561 72.45284068 -84.7578125 55.00390625 C-83.2028485 53.35095115 -81.64046499 51.70494059 -80.0703125 50.06640625 C-79.39355469 49.31488281 -78.71679688 48.56335938 -78.01953125 47.7890625 C-65.02125417 33.86058857 -46.42527102 25.33271859 -30.0703125 16.06640625 C-28.41588135 15.12885498 -28.41588135 15.12885498 -26.72802734 14.17236328 C-22.61009987 11.84077664 -18.49150134 9.51046042 -14.3671875 7.19018555 C-13.47902344 6.69043213 -12.59085937 6.19067871 -11.67578125 5.67578125 C-10.90387451 5.24233398 -10.13196777 4.80888672 -9.33666992 4.36230469 C-7.67475968 3.41202788 -6.03599485 2.42096696 -4.41186523 1.4074707 C-2.0703125 0.06640625 -2.0703125 0.06640625 0 0 Z " fill="#716EF6" transform="translate(117.0703125,303.93359375)"/>
<path d="M0 0 C2.82338073 1.41843693 4.59463243 2.93326347 6.81918335 5.16946411 C7.61706268 5.96434235 8.41494202 6.75922058 9.23699951 7.57818604 C10.08605865 8.43959198 10.9351178 9.30099792 11.80990601 10.18850708 C12.6962674 11.07674164 13.58262878 11.9649762 14.49584961 12.88012695 C16.37042645 14.76142441 18.24196274 16.6452193 20.10873413 18.53421021 C22.94804832 21.40717732 25.80042516 24.26685871 28.65365601 27.12600708 C30.47719361 28.95872279 32.30012972 30.79203722 34.12240601 32.62600708 C34.96741669 33.47526764 35.81242737 34.3245282 36.68304443 35.19952393 C40.97429174 39.54203856 45.13290261 43.94437853 49.09837341 48.58738708 C51.48395725 51.31908107 54.06795442 53.83612604 56.66146851 56.36819458 C57.70312828 57.40726236 58.74350672 58.44761635 59.78256226 59.48928833 C61.38936685 61.09609293 63.00246117 62.69679591 64.63412476 64.27835083 C68.8067098 68.6149687 70.5320265 73.26417832 70.59896851 79.30569458 C69.93802224 86.74111941 67.14240514 90.79229272 61.91146851 95.93069458 C61.31140991 96.54686646 60.71135132 97.16303833 60.09310913 97.79788208 C58.27944443 99.65245651 56.44265453 101.48100308 54.59896851 103.30569458 C53.33024843 104.57473524 52.06200372 105.84425135 50.79428101 107.11428833 C49.72928713 108.17820083 48.66419545 109.24201543 47.59896851 110.30569458 C46.79459351 111.11006958 45.99021851 111.91444458 45.16146851 112.74319458 C44.31584351 113.58881958 43.47021851 114.43444458 42.59896851 115.30569458 C41.95701538 115.97085083 41.31506226 116.63600708 40.65365601 117.32131958 C39.60564819 118.39639771 39.60564819 118.39639771 38.53646851 119.49319458 C37.88549194 120.16737427 37.23451538 120.84155396 36.56381226 121.53616333 C32.37295805 125.31043163 28.9657173 125.66925534 23.34896851 125.80569458 C22.08568726 125.85725708 20.82240601 125.90881958 19.52084351 125.96194458 C8.93259913 124.19020648 0.82578277 112.72405909 -6.40103149 105.36819458 C-8.85592939 102.87649881 -11.31404629 100.3880442 -13.77603149 97.90335083 C-14.36674942 97.30713425 -14.95746735 96.71091766 -15.56608582 96.09663391 C-19.05204838 92.59894605 -22.62233299 89.28011553 -26.38882446 86.08425903 C-30.58444327 82.37580441 -34.49668616 78.35703182 -38.44668579 74.39041138 C-39.96095729 72.8707779 -41.48050579 71.35656941 -43.00064087 69.84280396 C-47.78549772 65.06077991 -52.43924815 60.2211098 -56.83877563 55.0774231 C-59.84669407 51.66619258 -63.17402116 48.56644452 -66.47720337 45.44436646 C-67.84025188 44.11922827 -69.12758149 42.71715394 -70.40103149 41.30569458 C-70.40103149 40.31569458 -70.40103149 39.32569458 -70.40103149 38.30569458 C-69.6889856 37.89955933 -68.9769397 37.49342407 -68.24331665 37.07498169 C-56.0958314 30.14452373 -43.95002897 23.2114429 -31.83877563 16.21780396 C-29.64658397 14.95247526 -27.45307929 13.68941841 -25.25820923 12.42874146 C-20.75557242 9.8400139 -16.26556857 7.24331232 -11.84243774 4.52053833 C-11.19194458 4.12672974 -10.54145142 3.73292114 -9.87124634 3.32717896 C-8.25186896 2.34251235 -6.64410492 1.3388097 -5.03775024 0.33303833 C-2.40103149 -0.69430542 -2.40103149 -0.69430542 0 0 Z " fill="#716EF6" transform="translate(270.4010314941406,517.6943054199219)"/>
<path d="M0 0 C9.25817818 7.79137993 16.9075049 19.12780268 19.35546875 31.1171875 C19.6357556 35.65512822 19.6330022 40.19653567 19.66796875 44.7421875 C19.71147461 46.59263672 19.71147461 46.59263672 19.75585938 48.48046875 C19.80961142 56.26211071 18.92809042 62.18647757 15.35546875 69.1171875 C14.79085937 70.23609375 14.22625 71.355 13.64453125 72.5078125 C10.39074072 78.09883285 7.39247914 82.99599718 2.35546875 87.1171875 C1.36546875 87.1171875 0.37546875 87.1171875 -0.64453125 87.1171875 C-2.03222656 85.32666016 -2.03222656 85.32666016 -3.47265625 82.78125 C-4.01720459 81.83266113 -4.56175293 80.88407227 -5.12280273 79.90673828 C-5.70747314 78.86243652 -6.29214355 77.81813477 -6.89453125 76.7421875 C-7.51078369 75.66308105 -8.12703613 74.58397461 -8.76196289 73.47216797 C-10.07044316 71.18038601 -11.37506815 68.88683008 -12.67431641 66.58984375 C-15.16750151 62.19541191 -17.69590531 57.82189952 -20.2265625 53.44897461 C-22.10272517 50.20642242 -23.97396572 46.96107766 -25.84375 43.71484375 C-29.6915607 37.03504437 -33.54244829 30.35702397 -37.39453125 23.6796875 C-38.01263672 22.6081543 -38.63074219 21.53662109 -39.26757812 20.43261719 C-44.71653927 10.9883315 -50.17746516 1.55100217 -55.64453125 -7.8828125 C-43.70805831 -21.60975638 -11.83378451 -8.42523506 0 0 Z " fill="#716EF6" transform="translate(512.64453125,183.8828125)"/>
<path d="M0 0 C1.2804847 0.4079203 1.2804847 0.4079203 2.58683777 0.82408142 C4.39125867 1.40130918 6.19391987 1.98406372 7.99487305 2.57202148 C10.68103047 3.44870847 13.37198633 4.30892812 16.06445312 5.16601562 C24.83881886 7.97669396 33.56958194 10.91242139 42.2421875 14.0234375 C43.37815117 14.42104027 43.37815117 14.42104027 44.5370636 14.82667542 C50.94963845 17.17111003 57.30006666 19.72269341 60.91796875 25.71484375 C62.60061794 31.91961264 62.97089437 36.1175941 59.79296875 41.71484375 C57.27546469 45.28422973 55.19468964 47.1112582 50.91796875 48.40234375 C42.48553372 49.3760989 35.07481748 47.04946091 27.10546875 44.52734375 C25.79752806 44.12218902 24.48941926 43.71757663 23.18115234 43.31347656 C19.08396199 42.03872874 14.9994914 40.7262965 10.91796875 39.40234375 C10.24062683 39.18308228 9.56328491 38.9638208 8.86541748 38.73791504 C4.87817894 37.44368061 0.89843713 36.12899493 -3.07333374 34.7880249 C-4.91039197 34.16808285 -6.74972654 33.55489916 -8.58911133 32.94189453 C-24.05353623 27.60948637 -24.05353623 27.60948637 -27.2824707 22.50439453 C-29.59140954 17.54387059 -29.48543415 12.61913107 -28.08203125 7.40234375 C-25.90635066 2.96730254 -23.36949095 0.5724306 -19.25390625 -1.93359375 C-12.59747811 -3.96883257 -6.35652043 -2.0955964 0 0 Z " fill="#716EF6" transform="translate(608.08203125,254.59765625)"/>
<path d="M0 0 C5.13848713 4.09115217 7.35863518 8.2783684 8.46484375 14.77734375 C7.59173991 20.1251048 5.12693816 24.08034623 0.91162109 27.51074219 C-5.71507474 32.07473332 -12.54220973 36.17595222 -19.53515625 40.15234375 C-20.67138428 40.80170898 -21.8076123 41.45107422 -22.97827148 42.12011719 C-25.26123727 43.42264351 -27.54563414 44.72266514 -29.83154297 46.02001953 C-32.69742018 47.64799154 -35.55647084 49.28723742 -38.4140625 50.9296875 C-39.97474635 51.81731073 -41.53590623 52.70409777 -43.09765625 53.58984375 C-43.77957031 53.98341064 -44.46148438 54.37697754 -45.1640625 54.7824707 C-51.59550644 58.38978977 -58.59662062 61.88370073 -66.1171875 60.47265625 C-71.19953861 58.79579091 -74.25163361 56.11306805 -77.03515625 51.58984375 C-78.60590172 45.69954824 -78.35017252 41.19399876 -75.359375 35.83984375 C-72.87166533 32.62881682 -70.29474246 30.54760309 -66.91015625 28.40234375 C-66.27835449 27.99185791 -65.64655273 27.58137207 -64.99560547 27.15844727 C-51.12190675 18.29675521 -36.6780066 10.2179249 -22.16015625 2.46484375 C-21.48355957 2.10189209 -20.80696289 1.73894043 -20.10986328 1.36499023 C-13.54372087 -2.08014476 -6.87017048 -3.91639277 0 0 Z " fill="#716EF6" transform="translate(646.03515625,128.16015625)"/>
<path d="M0 0 C3.80795596 3.90559585 6.30527917 7.34173935 6.54052734 12.9609375 C5.78730889 23.45925671 3.53717634 33.63353961 1.30932617 43.90209961 C0.62625068 47.05672404 -0.04031828 50.21451808 -0.70507812 53.37304688 C-6.82103114 82.10424749 -6.82103114 82.10424749 -13.5625 88.5 C-19.24000011 90.39250004 -25.3929784 90.28891694 -31 88.25 C-37.20127743 84.01498127 -37.20127743 84.01498127 -37.99658203 80.67944336 C-38.75317673 74.44637585 -38.18749163 68.85483648 -37.125 62.6875 C-36.95033203 61.64013672 -36.77566406 60.59277344 -36.59570312 59.51367188 C-34.84911113 49.45491597 -32.73507675 39.47398139 -30.5625 29.5 C-30.39541534 28.7208725 -30.22833069 27.941745 -30.05618286 27.13900757 C-25.08280199 4.08928254 -25.08280199 4.08928254 -18.59765625 -0.6875 C-12.66024239 -3.05790707 -5.76767654 -2.42849539 0 0 Z " fill="#716EF6" transform="translate(529.5625,41.5)"/>
</svg>
